  0
SECTION
  2
HEADER
  9
$ACADVER
  1
AC1024
  9
$ACADMAINTVER
 70
     6
  9
$DWGCODEPAGE
  3
ANSI_1252
  9
$INSBASE
 10
0.0
 20
0.0
 30
0.0
  9
$EXTMIN
 10
1.000000000000000E+20
 20
1.000000000000000E+20
 30
1.000000000000000E+20
  9
$EXTMAX
 10
-1.000000000000000E+20
 20
-1.000000000000000E+20
 30
-1.000000000000000E+20
  9
$LIMMIN
 10
0.0
 20
0.0
  9
$LIMMAX
 10
12.0
 20
9.0
  9
$ORTHOMODE
 70
     0
  9
$REGENMODE
 70
     1
  9
$FILLMODE
 70
     1
  9
$QTEXTMODE
 70
     0
  9
$MIRRTEXT
 70
     1
  9
$LTSCALE
 40
1.0
  9
$ATTMODE
 70
     1
  9
$TEXTSIZE
 40
0.2
  9
$TRACEWID
 40
0.05
  9
$TEXTSTYLE
  7
Standard
  9
$CLAYER
  8
0
  9
$CELTYPE
  6
ByLayer
  9
$CECOLOR
 62
   256
  9
$CELTSCALE
 40
1.0
  9
$DISPSILH
 70
     0
  9
$DIMSCALE
 40
1.0
  9
$DIMASZ
 40
0.18
  9
$DIMEXO
 40
0.0625
  9
$DIMDLI
 40
0.38
  9
$DIMRND
 40
0.0
  9
$DIMDLE
 40
0.0
  9
$DIMEXE
 40
0.18
  9
$DIMTP
 40
0.0
  9
$DIMTM
 40
0.0
  9
$DIMTXT
 40
0.18
  9
$DIMCEN
 40
0.09
  9
$DIMTSZ
 40
0.0
  9
$DIMTOL
 70
     0
  9
$DIMLIM
 70
     0
  9
$DIMTIH
 70
     1
  9
$DIMTOH
 70
     1
  9
$DIMSE1
 70
     0
  9
$DIMSE2
 70
     0
  9
$DIMTAD
 70
     0
  9
$DIMZIN
 70
     0
  9
$DIMBLK
  1

  9
$DIMASO
 70
     1
  9
$DIMSHO
 70
     1
  9
$DIMPOST
  1

  9
$DIMAPOST
  1

  9
$DIMALT
 70
     0
  9
$DIMALTD
 70
     2
  9
$DIMALTF
 40
25.4
  9
$DIMLFAC
 40
1.0
  9
$DIMTOFL
 70
     0
  9
$DIMTVP
 40
0.0
  9
$DIMTIX
 70
     0
  9
$DIMSOXD
 70
     0
  9
$DIMSAH
 70
     0
  9
$DIMBLK1
  1

  9
$DIMBLK2
  1

  9
$DIMSTYLE
  2
Standard
  9
$DIMCLRD
 70
     0
  9
$DIMCLRE
 70
     0
  9
$DIMCLRT
 70
     0
  9
$DIMTFAC
 40
1.0
  9
$DIMGAP
 40
0.09
  9
$DIMJUST
 70
     0
  9
$DIMSD1
 70
     0
  9
$DIMSD2
 70
     0
  9
$DIMTOLJ
 70
     1
  9
$DIMTZIN
 70
     0
  9
$DIMALTZ
 70
     0
  9
$DIMALTTZ
 70
     0
  9
$DIMUPT
 70
     0
  9
$DIMDEC
 70
     4
  9
$DIMTDEC
 70
     4
  9
$DIMALTU
 70
     2
  9
$DIMALTTD
 70
     2
  9
$DIMTXSTY
  7
Standard
  9
$DIMAUNIT
 70
     0
  9
$DIMADEC
 70
     0
  9
$DIMALTRND
 40
0.0
  9
$DIMAZIN
 70
     0
  9
$DIMDSEP
 70
    46
  9
$DIMATFIT
 70
     3
  9
$DIMFRAC
 70
     0
  9
$DIMLDRBLK
  1

  9
$DIMLUNIT
 70
     2
  9
$DIMLWD
 70
    -2
  9
$DIMLWE
 70
    -2
  9
$DIMTMOVE
 70
     0
  9
$DIMFXL
 40
1.0
  9
$DIMFXLON
 70
     0
  9
$DIMJOGANG
 40
0.7853981633974483
  9
$DIMTFILL
 70
     0
  9
$DIMTFILLCLR
 70
     0
  9
$DIMARCSYM
 70
     0
  9
$DIMLTYPE
  6

  9
$DIMLTEX1
  6

  9
$DIMLTEX2
  6

  9
$DIMTXTDIRECTION
 70
     0
  9
$LUNITS
 70
     2
  9
$LUPREC
 70
     4
  9
$SKETCHINC
 40
0.1
  9
$FILLETRAD
 40
0.5
  9
$AUNITS
 70
     0
  9
$AUPREC
 70
     0
  9
$MENU
  1
.
  9
$ELEVATION
 40
0.0
  9
$PELEVATION
 40
0.0
  9
$THICKNESS
 40
0.0
  9
$LIMCHECK
 70
     0
  9
$CHAMFERA
 40
0.5
  9
$CHAMFERB
 40
0.5
  9
$CHAMFERC
 40
1.0
  9
$CHAMFERD
 40
0.0
  9
$SKPOLY
 70
     0
  9
$TDCREATE
 40
2458760.040960868
  9
$TDUCREATE
 40
2458759.707627535
  9
$TDUPDATE
 40
2458760.040961042
  9
$TDUUPDATE
 40
2458759.707627709
  9
$TDINDWG
 40
0.0000000116
  9
$TDUSRTIMER
 40
0.0000000116
  9
$USRTIMER
 70
     1
  9
$ANGBASE
 50
0.0
  9
$ANGDIR
 70
     0
  9
$PDMODE
 70
     0
  9
$PDSIZE
 40
0.0
  9
$PLINEWID
 40
0.0
  9
$SPLFRAME
 70
     0
  9
$SPLINETYPE
 70
     6
  9
$SPLINESEGS
 70
     8
  9
$HANDSEED
  5
5A
  9
$SURFTAB1
 70
     6
  9
$SURFTAB2
 70
     6
  9
$SURFTYPE
 70
     6
  9
$SURFU
 70
     6
  9
$SURFV
 70
     6
  9
$UCSBASE
  2

  9
$UCSNAME
  2

  9
$UCSORG
 10
0.0
 20
0.0
 30
0.0
  9
$UCSXDIR
 10
1.0
 20
0.0
 30
0.0
  9
$UCSYDIR
 10
0.0
 20
1.0
 30
0.0
  9
$UCSORTHOREF
  2

  9
$UCSORTHOVIEW
 70
     0
  9
$UCSORGTOP
 10
0.0
 20
0.0
 30
0.0
  9
$UCSORGBOTTOM
 10
0.0
 20
0.0
 30
0.0
  9
$UCSORGLEFT
 10
0.0
 20
0.0
 30
0.0
  9
$UCSORGRIGHT
 10
0.0
 20
0.0
 30
0.0
  9
$UCSORGFRONT
 10
0.0
 20
0.0
 30
0.0
  9
$UCSORGBACK
 10
0.0
 20
0.0
 30
0.0
  9
$PUCSBASE
  2

  9
$PUCSNAME
  2

  9
$PUCSORG
 10
0.0
 20
0.0
 30
0.0
  9
$PUCSXDIR
 10
1.0
 20
0.0
 30
0.0
  9
$PUCSYDIR
 10
0.0
 20
1.0
 30
0.0
  9
$PUCSORTHOREF
  2

  9
$PUCSORTHOVIEW
 70
     0
  9
$PUCSORGTOP
 10
0.0
 20
0.0
 30
0.0
  9
$PUCSORGBOTTOM
 10
0.0
 20
0.0
 30
0.0
  9
$PUCSORGLEFT
 10
0.0
 20
0.0
 30
0.0
  9
$PUCSORGRIGHT
 10
0.0
 20
0.0
 30
0.0
  9
$PUCSORGFRONT
 10
0.0
 20
0.0
 30
0.0
  9
$PUCSORGBACK
 10
0.0
 20
0.0
 30
0.0
  9
$USERI1
 70
     0
  9
$USERI2
 70
     0
  9
$USERI3
 70
     0
  9
$USERI4
 70
     0
  9
$USERI5
 70
     0
  9
$USERR1
 40
0.0
  9
$USERR2
 40
0.0
  9
$USERR3
 40
0.0
  9
$USERR4
 40
0.0
  9
$USERR5
 40
0.0
  9
$WORLDVIEW
 70
     1
  9
$SHADEDGE
 70
     3
  9
$SHADEDIF
 70
    70
  9
$TILEMODE
 70
     1
  9
$MAXACTVP
 70
    64
  9
$PINSBASE
 10
0.0
 20
0.0
 30
0.0
  9
$PLIMCHECK
 70
     0
  9
$PEXTMIN
 10
1.000000000000000E+20
 20
1.000000000000000E+20
 30
1.000000000000000E+20
  9
$PEXTMAX
 10
-1.000000000000000E+20
 20
-1.000000000000000E+20
 30
-1.000000000000000E+20
  9
$PLIMMIN
 10
0.0
 20
0.0
  9
$PLIMMAX
 10
12.0
 20
9.0
  9
$UNITMODE
 70
     0
  9
$VISRETAIN
 70
     1
  9
$PLINEGEN
 70
     0
  9
$PSLTSCALE
 70
     1
  9
$TREEDEPTH
 70
  3020
  9
$CMLSTYLE
  2
Standard
  9
$CMLJUST
 70
     0
  9
$CMLSCALE
 40
1.0
  9
$PROXYGRAPHICS
 70
     1
  9
$MEASUREMENT
 70
     0
  9
$CELWEIGHT
370
    -1
  9
$ENDCAPS
280
     0
  9
$JOINSTYLE
280
     0
  9
$LWDISPLAY
290
     1
  9
$INSUNITS
 70
     1
  9
$HYPERLINKBASE
  1

  9
$STYLESHEET
  1

  9
$XEDIT
290
     1
  9
$CEPSNTYPE
380
     0
  9
$PSTYLEMODE
290
     1
  9
$FINGERPRINTGUID
  2
{2CBF4C73-70A8-4BDD-B814-A2AFAD98B937}
  9
$VERSIONGUID
  2
{FAEB1C32-E019-11D5-929B-00C0DF256EC4}
  9
$EXTNAMES
290
     1
  9
$PSVPSCALE
 40
0.0
  9
$OLESTARTUP
290
     0
  9
$SORTENTS
280
   127
  9
$INDEXCTL
280
     0
  9
$HIDETEXT
280
     1
  9
$XCLIPFRAME
280
     2
  9
$HALOGAP
280
     0
  9
$OBSCOLOR
 70
   257
  9
$OBSLTYPE
280
     0
  9
$INTERSECTIONDISPLAY
280
     0
  9
$INTERSECTIONCOLOR
 70
   257
  9
$DIMASSOC
280
     2
  9
$PROJECTNAME
  1

  9
$CAMERADISPLAY
290
     0
  9
$LENSLENGTH
 40
50.0
  9
$CAMERAHEIGHT
 40
0.0
  9
$STEPSPERSEC
 40
2.0
  9
$STEPSIZE
 40
6.0
  9
$3DDWFPREC
 40
2.0
  9
$PSOLWIDTH
 40
0.25
  9
$PSOLHEIGHT
 40
4.0
  9
$LOFTANG1
 40
1.570796326794897
  9
$LOFTANG2
 40
1.570796326794897
  9
$LOFTMAG1
 40
0.0
  9
$LOFTMAG2
 40
0.0
  9
$LOFTPARAM
 70
     7
  9
$LOFTNORMALS
280
     1
  9
$LATITUDE
 40
37.795
  9
$LONGITUDE
 40
-122.394
  9
$NORTHDIRECTION
 40
0.0
  9
$TIMEZONE
 70
 -8000
  9
$LIGHTGLYPHDISPLAY
280
     1
  9
$TILEMODELIGHTSYNCH
280
     1
  9
$CMATERIAL
347
3C
  9
$SOLIDHIST
280
     1
  9
$SHOWHIST
280
     1
  9
$DWFFRAME
280
     2
  9
$DGNFRAME
280
     2
  9
$REALWORLDSCALE
290
     1
  9
$INTERFERECOLOR
 62
   256
  9
$CSHADOW
280
     0
  9
$SHADOWPLANELOCATION
 40
0.0
  0
ENDSEC
  0
SECTION
  2
CLASSES
  0
CLASS
  1
ACDBDICTIONARYWDFLT
  2
AcDbDictionaryWithDefault
  3
ObjectDBX Classes
 90
        0
 91
        4
280
     0
281
     0
  0
CLASS
  1
VISUALSTYLE
  2
AcDbVisualStyle
  3
ObjectDBX Classes
 90
     4095
 91
        4
280
     0
281
     0
  0
CLASS
  1
MATERIAL
  2
AcDbMaterial
  3
ObjectDBX Classes
 90
     1153
 91
        4
280
     0
281
     0
  0
CLASS
  1
SUN
  2
AcDbSun
  3
SCENEOE
 90
     1024
 91
        4
280
     0
281
     0
  0
ENDSEC
  0
SECTION
  2
TABLES
  0
TABLE
  2
VPORT
  5
8
330
0
100
AcDbSymbolTable
 70
     1
  0
VPORT
  5
29
330
8
100
AcDbSymbolTableRecord
100
AcDbViewportTableRecord
  2
*Active
 70
     0
 10
0.0
 20
0.0
 11
1.0
 21
1.0
 12
0.0
 22
0.0
 13
0.0
 23
0.0
 14
0.5
 24
0.5
 15
0.5
 25
0.5
 16
0.0
 26
0.0
 36
1.0
 17
3.0
 27
-3.0
 37
0.0
 40
6.0
 41
1.0
 42
50.0
 43
0.0
 44
0.0
 50
0.0
 51
0.0
 71
     0
 72
   100
 73
     1
 74
     3
 75
     0
 76
     0
 77
     0
 78
     0
281
     0
 65
     1
110
0.0
120
0.0
130
0.0
111
1.0
121
0.0
131
0.0
112
0.0
122
1.0
132
0.0
 79
     0
146
0.0
 60
     3
 61
     5
292
     1
282
     1
141
0.0
142
0.0
 63
   250
361
3F
  0
ENDTAB
  0
TABLE
  2
LTYPE
  5
5
330
0
100
AcDbSymbolTable
 70
     1
  0
LTYPE
  5
14
330
5
100
AcDbSymbolTableRecord
100
AcDbLinetypeTableRecord
  2
ByBlock
 70
     0
  3

 72
    65
 73
     0
 40
0.0
  0
LTYPE
  5
15
330
5
100
AcDbSymbolTableRecord
100
AcDbLinetypeTableRecord
  2
ByLayer
 70
     0
  3

 72
    65
 73
     0
 40
0.0
  0
LTYPE
  5
16
330
5
100
AcDbSymbolTableRecord
100
AcDbLinetypeTableRecord
  2
Continuous
 70
     0
  3
Solid line
 72
    65
 73
     0
 40
0.0
  0
ENDTAB
  0
TABLE
  2
LAYER
  5
2
330
0
100
AcDbSymbolTable
 70
     2
  0
LAYER
  5
10
330
2
100
AcDbSymbolTableRecord
100
AcDbLayerTableRecord
  2
0
 70
     0
 62
     7
  6
Continuous
370
    -3
390
F
347
3E
  0
LAYER
  5
40
330
2
100
AcDbSymbolTableRecord
100
AcDbLayerTableRecord
  2
Layer 2
 70
     0
 62
     7
  6
Continuous
370
    -3
390
F
347
3E
  0
ENDTAB
  0
TABLE
  2
STYLE
  5
3
330
0
100
AcDbSymbolTable
 70
     1
  0
STYLE
  5
11
330
3
100
AcDbSymbolTableRecord
100
AcDbTextStyleTableRecord
  2
Standard
 70
     0
 40
0.0
 41
1.0
 50
0.0
 71
     0
 42
0.2
  3
txt
  4

  0
ENDTAB
  0
TABLE
  2
VIEW
  5
6
330
0
100
AcDbSymbolTable
 70
     0
  0
ENDTAB
  0
TABLE
  2
UCS
  5
7
330
0
100
AcDbSymbolTable
 70
     0
  0
ENDTAB
  0
TABLE
  2
APPID
  5
9
330
0
100
AcDbSymbolTable
 70
     1
  0
APPID
  5
12
330
9
100
AcDbSymbolTableRecord
100
AcDbRegAppTableRecord
  2
ACAD
 70
     0
  0
ENDTAB
  0
TABLE
  2
DIMSTYLE
  5
A
330
0
100
AcDbSymbolTable
 70
     1
100
AcDbDimStyleTable
  0
DIMSTYLE
105
27
330
A
100
AcDbSymbolTableRecord
100
AcDbDimStyleTableRecord
  2
Standard
 70
     0
178
     0
340
11
  0
ENDTAB
  0
TABLE
  2
BLOCK_RECORD
  5
1
330
0
100
AcDbSymbolTable
 70
     2
  0
BLOCK_RECORD
  5
1F
330
1
100
AcDbSymbolTableRecord
100
AcDbBlockTableRecord
  2
*Model_Space
340
22
 70
     0
280
     1
281
     0
  0
BLOCK_RECORD
  5
1B
330
1
100
AcDbSymbolTableRecord
100
AcDbBlockTableRecord
  2
*Paper_Space
340
1E
 70
     0
280
     1
281
     0
  0
BLOCK_RECORD
  5
23
330
1
100
AcDbSymbolTableRecord
100
AcDbBlockTableRecord
  2
*Paper_Space0
340
26
 70
     0
280
     1
281
     0
  0
BLOCK_RECORD
  5
44
330
1
100
AcDbSymbolTableRecord
100
AcDbBlockTableRecord
  2
block 2
340
0
102
{BLKREFS
331
45
102
}
 70
     0
280
     1
281
     0
  0
ENDTAB
  0
ENDSEC
  0
SECTION
  2
BLOCKS
  0
BLOCK
  5
20
330
1F
100
AcDbEntity
  8
0
100
AcDbBlockBegin
  2
*Model_Space
 70
     0
 10
0.0
 20
0.0
 30
0.0
  3
*Model_Space
  1

  0
ENDBLK
  5
21
330
1F
100
AcDbEntity
  8
0
100
AcDbBlockEnd
  0
BLOCK
  5
1C
330
1B
100
AcDbEntity
 67
     1
  8
0
100
AcDbBlockBegin
  2
*Paper_Space
 70
     0
 10
0.0
 20
0.0
 30
0.0
  3
*Paper_Space
  1

  0
ENDBLK
  5
1D
330
1B
100
AcDbEntity
 67
     1
  8
0
100
AcDbBlockEnd
  0
BLOCK
  5
24
330
23
100
AcDbEntity
  8
0
100
AcDbBlockBegin
  2
*Paper_Space0
 70
     0
 10
0.0
 20
0.0
 30
0.0
  3
*Paper_Space0
  1

  0
ENDBLK
  5
25
330
23
100
AcDbEntity
  8
0
100
AcDbBlockEnd
  0
BLOCK
  5
46
330
44
100
AcDbEntity
  8
0
100
AcDbBlockBegin
  2
block 2
 70
     0
 10
0.0
 20
0.0
 30
0.0
  3
block 2
  1

  0
SPLINE
  5
48
330
44
100
AcDbEntity
  8
Layer 2
370
     0
100
AcDbSpline
210
0.0
220
0.0
230
1.0
 70
    11
 71
     3
 72
   170
 73
   166
 74
     0
 42
0.0000000001
 43
0.0000000001
 12
1.0
 22
0.0
 32
0.0
 13
1.0
 23
0.0
 33
0.0
 40
0.0
 40
0.0
 40
0.0
 40
0.0
 40
1.0
 40
1.0
 40
1.0
 40
2.0
 40
2.0
 40
2.0
 40
3.0
 40
3.0
 40
3.0
 40
4.0
 40
4.0
 40
4.0
 40
5.0
 40
5.0
 40
5.0
 40
6.0
 40
6.0
 40
6.0
 40
7.0
 40
7.0
 40
7.0
 40
8.0
 40
8.0
 40
8.0
 40
9.0
 40
9.0
 40
9.0
 40
10.0
 40
10.0
 40
10.0
 40
11.0
 40
11.0
 40
11.0
 40
12.0
 40
12.0
 40
12.0
 40
13.0
 40
13.0
 40
13.0
 40
14.0
 40
14.0
 40
14.0
 40
15.0
 40
15.0
 40
15.0
 40
16.0
 40
16.0
 40
16.0
 40
17.0
 40
17.0
 40
17.0
 40
18.0
 40
18.0
 40
18.0
 40
19.0
 40
19.0
 40
19.0
 40
20.0
 40
20.0
 40
20.0
 40
21.0
 40
21.0
 40
21.0
 40
22.0
 40
22.0
 40
22.0
 40
23.0
 40
23.0
 40
23.0
 40
24.0
 40
24.0
 40
24.0
 40
25.0
 40
25.0
 40
25.0
 40
26.0
 40
26.0
 40
26.0
 40
27.0
 40
27.0
 40
27.0
 40
28.0
 40
28.0
 40
28.0
 40
29.0
 40
29.0
 40
29.0
 40
30.0
 40
30.0
 40
30.0
 40
31.0
 40
31.0
 40
31.0
 40
32.0
 40
32.0
 40
32.0
 40
33.0
 40
33.0
 40
33.0
 40
34.0
 40
34.0
 40
34.0
 40
35.0
 40
35.0
 40
35.0
 40
36.0
 40
36.0
 40
36.0
 40
37.0
 40
37.0
 40
37.0
 40
38.0
 40
38.0
 40
38.0
 40
39.0
 40
39.0
 40
39.0
 40
40.0
 40
40.0
 40
40.0
 40
41.0
 40
41.0
 40
41.0
 40
42.0
 40
42.0
 40
42.0
 40
43.0
 40
43.0
 40
43.0
 40
44.0
 40
44.0
 40
44.0
 40
45.0
 40
45.0
 40
45.0
 40
46.0
 40
46.0
 40
46.0
 40
47.0
 40
47.0
 40
47.0
 40
48.0
 40
48.0
 40
48.0
 40
49.0
 40
49.0
 40
49.0
 40
50.0
 40
50.0
 40
50.0
 40
51.0
 40
51.0
 40
51.0
 40
52.0
 40
52.0
 40
52.0
 40
53.0
 40
53.0
 40
53.0
 40
54.0
 40
54.0
 40
54.0
 40
55.0
 40
55.0
 40
55.0
 40
55.0
 10
4.548042297363281
 20
-2.918807135687934
 30
0.0
 10
4.526460435655381
 20
-2.726632859971788
 30
0.0
 10
4.356583489312066
 20
-2.650790744357639
 30
0.0
 10
4.197722540961371
 20
-2.590220981174045
 30
0.0
 10
4.184040493435329
 20
-2.585004170735677
 30
0.0
 10
4.179027981228298
 20
-2.575113084581163
 30
0.0
 10
4.179789225260416
 20
-2.565066867404514
 30
0.0
 10
4.176989237467447
 20
-2.553097195095486
 30
0.0
 10
4.181614345974392
 20
-2.540154351128472
 30
0.0
 10
4.197629292805989
 20
-2.533057318793403
 30
0.0
 10
4.36051771375868
 20
-2.460873921712239
 30
0.0
 10
4.570718553331163
 20
-2.492182413736979
 30
0.0
 10
4.72965579562717
 20
-2.570009019639757
 30
0.0
 10
4.722279018825954
 20
-2.498652988009983
 30
0.0
 10
4.704554239908854
 20
-2.428677029079861
 30
0.0
 10
4.675171746148004
 20
-2.363128662109375
 30
0.0
 10
4.660341050889756
 20
-2.330043368869358
 30
0.0
 10
4.642819722493489
 20
-2.299999660915799
 30
0.0
 10
4.620876736111111
 20
-2.271332634819878
 30
0.0
 10
4.610459221733941
 20
-2.257723490397135
 30
0.0
 10
4.599218580457899
 20
-2.246251424153646
 30
0.0
 10
4.590446472167969
 20
-2.233163621690538
 30
0.0
 10
4.586247762044271
 20
-2.231477525499132
 30
0.0
 10
4.582054985894097
 20
-2.22979736328125
 30
0.0
 10
4.577806260850694
 20
-2.228075663248698
 30
0.0
 10
4.552767435709635
 20
-2.217930263943142
 30
0.0
 10
4.559887356228298
 20
-2.182390848795573
 30
0.0
 10
4.58573744032118
 20
-2.179525587293837
 30
0.0
 10
4.697081671820746
 20
-2.167183770073785
 30
0.0
 10
4.811588711208767
 20
-2.228263854980469
 30
0.0
 10
4.885215759277344
 20
-2.309137980143229
 30
0.0
 10
4.897448221842447
 20
-2.322574191623264
 30
0.0
 10
4.909617953830295
 20
-2.338196648491753
 30
0.0
 10
4.921385023328993
 20
-2.355162726508246
 30
0.0
 10
4.919107225206163
 20
-2.345820109049479
 30
0.0
 10
4.917132059733072
 20
-2.336302863226996
 30
0.0
 10
4.915723164876302
 20
-2.326462639702691
 30
0.0
 10
4.902480231391059
 20
-2.233985900878906
 30
0.0
 10
4.923334757486979
 20
-2.147612677680121
 30
0.0
 10
4.870440165201822
 20
-2.064131842719184
 30
0.0
 10
4.834660847981771
 20
-2.007663302951389
 30
0.0
 10
4.785543653700087
 20
-1.961180792914496
 30
0.0
 10
4.743446350097656
 20
-1.909655253092448
 30
0.0
 10
4.646049499511719
 20
-1.790445115831163
 30
0.0
 10
4.632497999403212
 20
-1.661167568630642
 30
0.0
 10
4.635058932834201
 20
-1.511758592393663
 30
0.0
 10
4.637992858886719
 20
-1.340548197428385
 30
0.0
 10
4.632169087727864
 20
-1.169280158148871
 30
0.0
 10
4.604556613498263
 20
-0.9999906751844617
 30
0.0
 10
4.588588290744357
 20
-0.9020928276909722
 30
0.0
 10
4.565480550130208
 20
-0.8050715128580729
 30
0.0
 10
4.534459431966146
 20
-0.7108323838975694
 30
0.0
 10
4.512163798014322
 20
-0.6430977715386285
 30
0.0
 10
4.487252129448785
 20
-0.5716306898328992
 30
0.0
 10
4.439456515842013
 20
-0.5171127319335938
 30
0.0
 10
4.319196065266927
 20
-0.3799370659722222
 30
0.0
 10
4.124248928493923
 20
-0.5409486558702257
 30
0.0
 10
4.017929077148438
 20
-0.6267344156901041
 30
0.0
 10
3.906725565592448
 20
-0.7164603339301215
 30
0.0
 10
3.810022989908854
 20
-0.8226682874891492
 30
0.0
 10
3.731742858886719
 20
-0.9422395494249132
 30
0.0
 10
3.672378540039062
 20
-1.032918294270833
 30
0.0
 10
3.633446587456597
 20
-1.132278442382812
 30
0.0
 10
3.587745666503906
 20
-1.228601243760851
 30
0.0
 10
3.585714552137587
 20
-1.309568617078993
 30
0.0
 10
3.57242923312717
 20
-1.397106594509548
 30
0.0
 10
3.551873948838975
 20
-1.470467461480035
 30
0.0
 10
3.535676744249132
 20
-1.528276231553819
 30
0.0
 10
3.495866563585069
 20
-1.572102864583333
 30
0.0
 10
3.438855489095052
 20
-1.579514397515191
 30
0.0
 10
3.437896728515625
 20
-1.589241027832031
 30
0.0
 10
3.436530219184028
 20
-1.598815070258246
 30
0.0
 10
3.434781392415364
 20
-1.608197530110677
 30
0.0
 10
3.441010369194878
 20
-1.601952446831597
 30
0.0
 10
3.447203742133246
 20
-1.596076117621528
 30
0.0
 10
3.453407287597656
 20
-1.591321309407552
 30
0.0
 10
3.466383192274305
 20
-1.581375122070312
 30
0.0
 10
3.504036797417534
 20
-1.583434210883246
 30
0.0
 10
3.500919765896267
 20
-1.607064988878038
 30
0.0
 10
3.490925259060329
 20
-1.68281979031033
 30
0.0
 10
3.428008185492621
 20
-1.747327168782552
 30
0.0
 10
3.34780036078559
 20
-1.745785183376736
 30
0.0
 10
3.284472995334201
 20
-1.74456787109375
 30
0.0
 10
3.200258043077257
 20
-1.681272718641493
 30
0.0
 10
3.207273695203993
 20
-1.61226314968533
 30
0.0
 10
3.209476047092014
 20
-1.590603298611111
 30
0.0
 10
3.239222208658854
 20
-1.583317226833767
 30
0.0
 10
3.254786173502604
 20
-1.59651862250434
 30
0.0
 10
3.286859300401475
 20
-1.623723347981771
 30
0.0
 10
3.311348809136284
 20
-1.686411539713542
 30
0.0
 10
3.361902872721354
 20
-1.669126722547743
 30
0.0
 10
3.362768385145399
 20
-1.668830871582031
 30
0.0
 10
3.36358896891276
 20
-1.668290879991319
 30
0.0
 10
3.364447699652778
 20
-1.667954338921441
 30
0.0
 10
3.363661024305555
 20
-1.663468254937066
 30
0.0
 10
3.363051520453559
 20
-1.659048292371962
 30
0.0
 10
3.362542046440972
 20
-1.654662238226996
 30
0.0
 10
3.332324557834201
 20
-1.631116231282552
 30
0.0
 10
3.322559780544704
 20
-1.57837168375651
 30
0.0
 10
3.316802978515625
 20
-1.540796915690104
 30
0.0
 10
3.241203308105469
 20
-1.466818067762587
 30
0.0
 10
3.260431925455729
 20
-1.308007982042101
 30
0.0
 10
3.281321207682292
 20
-1.213177151150173
 30
0.0
 10
3.321885850694444
 20
-1.029024759928385
 30
0.0
 10
3.425793117947048
 20
-0.86297607421875
 30
0.0
 10
3.556502448187934
 20
-0.7293006049262153
 30
0.0
 10
3.623719957139757
 20
-0.6605572170681423
 30
0.0
 10
3.698282877604167
 20
-0.5997051662868923
 30
0.0
 10
3.7776124742296
 20
-0.54547119140625
 30
0.0
 10
3.852999369303385
 20
-0.4939320882161458
 30
0.0
 10
3.937687344021267
 20
-0.4369227091471354
 30
0.0
 10
4.026822408040364
 20
-0.4142176310221354
 30
0.0
 10
4.05523681640625
 20
-0.4069798787434896
 30
0.0
 10
4.088651021321614
 20
-0.437666998969184
 30
0.0
 10
4.061503092447916
 20
-0.4618784586588541
 30
0.0
 10
4.027157253689236
 20
-0.492508782280816
 30
0.0
 10
3.985367668999566
 20
-0.5171381632486979
 30
0.0
 10
3.943918016221788
 20
-0.5412216186523438
 30
0.0
 10
3.951910230848524
 20
-0.54644775390625
 30
0.0
 10
3.958861456976996
 20
-0.553725348578559
 30
0.0
 10
3.964085896809896
 20
-0.5617735120985242
 30
0.0
 10
3.997611151801215
 20
-0.5352842542860243
 30
0.0
 10
4.032349480523004
 20
-0.5103268093532985
 30
0.0
 10
4.068324618869357
 20
-0.4872300889756944
 30
0.0
 10
4.189808315700954
 20
-0.4092364841037326
 30
0.0
 10
4.342530144585504
 20
-0.3303146362304688
 30
0.0
 10
4.47510019938151
 20
-0.4313854641384549
 30
0.0
 10
4.594649420844184
 20
-0.5225287543402778
 30
0.0
 10
4.637102762858072
 20
-0.7009065416124132
 30
0.0
 10
4.670127868652344
 20
-0.8384433322482638
 30
0.0
 10
4.715071784125434
 20
-1.025616115993924
 30
0.0
 10
4.73332044813368
 20
-1.218555026584201
 30
0.0
 10
4.734389411078559
 20
-1.410780164930556
 30
0.0
 10
4.734942966037326
 20
-1.510305616590712
 30
0.0
 10
4.722062004937066
 20
-1.615431043836805
 30
0.0
 10
4.745436774359809
 20
-1.713323805067274
 30
0.0
 10
4.764765421549479
 20
-1.794270833333333
 30
0.0
 10
4.815066867404513
 20
-1.854644775390625
 30
0.0
 10
4.868648952907986
 20
-1.91546885172526
 30
0.0
 10
4.918563842773438
 20
-1.972130669487847
 30
0.0
 10
4.971100701226129
 20
-2.030172559950087
 30
0.0
 10
4.995763142903646
 20
-2.103112114800347
 30
0.0
 10
5.023607889811197
 20
-2.185461256239149
 30
0.0
 10
5.005633036295572
 20
-2.277098761664496
 30
0.0
 10
5.035406324598524
 20
-2.357937282986111
 30
0.0
 10
5.094522264268663
 20
-2.518443637424045
 30
0.0
 10
5.286263359917535
 20
-2.579181247287326
 30
0.0
 10
5.390719095865885
 20
-2.703937106662326
 30
0.0
 10
5.438968234592013
 20
-2.761563618977864
 30
0.0
 10
5.473924424913194
 20
-2.838431464301215
 30
0.0
 10
5.470249599880642
 20
-2.914785597059462
 30
0.0
 10
5.468715243869357
 20
-2.946663750542534
 30
0.0
 10
5.459531995985243
 20
-2.974675496419271
 30
0.0
 10
5.44747077094184
 20
-3.003907945421007
 30
0.0
 10
5.442354838053385
 20
-3.016307406955295
 30
0.0
 10
5.430751376681857
 20
-3.03426530626085
 30
0.0
 10
5.428703308105469
 20
-3.051122877332899
 30
0.0
 10
5.319557189941406
 20
-3.032257927788628
 30
0.0
 10
5.210094028049045
 20
-3.01871829562717
 30
0.0
 10
5.101858350965712
 20
-3.009974161783854
 30
0.0
 10
4.916172451443142
 20
-2.994972229003906
 30
0.0
 10
4.728394402398004
 20
-2.995699564615885
 30
0.0
 10
4.542302449544271
 20
-3.013356526692708
 30
0.0
 10
4.549706353081597
 20
-2.982371860080295
 30
0.0
 10
4.551622178819444
 20
-2.950681050618489
 30
0.0
 10
4.548042297363281
 20
-2.918807135687934
 30
0.0
  0
SPLINE
  5
49
330
44
100
AcDbEntity
  8
Layer 2
370
     0
100
AcDbSpline
210
0.0
220
0.0
230
1.0
 70
    11
 71
     3
 72
    14
 73
    10
 74
     0
 42
0.0000000001
 43
0.0000000001
 12
1.0
 22
0.0
 32
0.0
 13
1.0
 23
0.0
 33
0.0
 40
0.0
 40
0.0
 40
0.0
 40
0.0
 40
1.0
 40
1.0
 40
1.0
 40
2.0
 40
2.0
 40
2.0
 40
3.0
 40
3.0
 40
3.0
 40
3.0
 10
3.903929816351996
 20
-0.585355970594618
 30
0.0
 10
3.903749254014757
 20
-0.5851593017578125
 30
0.0
 10
3.903597513834635
 20
-0.584975348578559
 30
0.0
 10
3.903366936577691
 20
-0.5847083197699653
 30
0.0
 10
3.903157552083333
 20
-0.584808349609375
 30
0.0
 10
3.902745564778646
 20
-0.584896511501736
 30
0.0
 10
3.902425130208333
 20
-0.584989759657118
 30
0.0
 10
3.902929517957899
 20
-0.5851008097330729
 30
0.0
 10
3.903426276312934
 20
-0.5852296617296007
 30
0.0
 10
3.903929816351996
 20
-0.585355970594618
 30
0.0
  0
ENDBLK
  5
47
330
44
100
AcDbEntity
  8
0
100
AcDbBlockEnd
  0
ENDSEC
  0
SECTION
  2
ENTITIES
  0
SPLINE
  5
41
330
1F
100
AcDbEntity
  8
Layer 2
370
     0
100
AcDbSpline
210
0.0
220
0.0
230
1.0
 70
    11
 71
     3
 72
    26
 73
    22
 74
     0
 42
0.0000000001
 43
0.0000000001
 12
1.0
 22
0.0
 32
0.0
 13
1.0
 23
0.0
 33
0.0
 40
0.0
 40
0.0
 40
0.0
 40
0.0
 40
1.0
 40
1.0
 40
1.0
 40
2.0
 40
2.0
 40
2.0
 40
3.0
 40
3.0
 40
3.0
 40
4.0
 40
4.0
 40
4.0
 40
5.0
 40
5.0
 40
5.0
 40
6.0
 40
6.0
 40
6.0
 40
7.0
 40
7.0
 40
7.0
 40
7.0
 10
0.4665824042426215
 20
-4.371442159016927
 30
0.0
 10
0.8104036119249132
 20
-4.272361755371094
 30
0.0
 10
1.145335727267795
 20
-4.14320543077257
 30
0.0
 10
1.465005662706163
 20
-3.987568325466579
 30
0.0
 10
1.439025031195746
 20
-4.05539788140191
 30
0.0
 10
1.416541205512153
 20
-4.124277750651041
 30
0.0
 10
1.40041012234158
 20
-4.194229125976562
 30
0.0
 10
1.092135111490885
 20
-4.325973510742188
 30
0.0
 10
0.7995393541124132
 20
-4.497584872775607
 30
0.0
 10
0.5334430270724826
 20
-4.701108296712239
 30
0.0
 10
0.539872063530816
 20
-4.674243503146701
 30
0.0
 10
0.5455381605360243
 20
-4.64551035563151
 30
0.0
 10
0.5440851847330729
 20
-4.628391689724392
 30
0.0
 10
0.5042716132269965
 20
-4.618842230902778
 30
0.0
 10
0.4694586859809027
 20
-4.611875745985243
 30
0.0
 10
0.4449149237738715
 20
-4.568275451660156
 30
0.0
 10
0.4128485785590277
 20
-4.511311001247829
 30
0.0
 10
0.4340786404079861
 20
-4.447063869900173
 30
0.0
 10
0.4576492309570312
 20
-4.39121839735243
 30
0.0
 10
0.4604593912760416
 20
-4.38456047905816
 30
0.0
 10
0.4636247422960069
 20
-4.378043280707465
 30
0.0
 10
0.4665824042426215
 20
-4.371442159016927
 30
0.0
  0
SPLINE
  5
42
330
1F
100
AcDbEntity
  8
Layer 2
370
     0
100
AcDbSpline
210
0.0
220
0.0
230
1.0
 70
    11
 71
     3
 72
    20
 73
    16
 74
     0
 42
0.0000000001
 43
0.0000000001
 12
1.0
 22
0.0
 32
0.0
 13
1.0
 23
0.0
 33
0.0
 40
0.0
 40
0.0
 40
0.0
 40
0.0
 40
1.0
 40
1.0
 40
1.0
 40
2.0
 40
2.0
 40
2.0
 40
3.0
 40
3.0
 40
3.0
 40
4.0
 40
4.0
 40
4.0
 40
5.0
 40
5.0
 40
5.0
 40
5.0
 10
4.033354865180121
 20
-1.496161566840278
 30
0.0
 10
3.926415337456597
 20
-1.456027560763889
 30
0.0
 10
3.75425550672743
 20
-1.492875840928819
 30
0.0
 10
3.679551018608941
 20
-1.582887437608507
 30
0.0
 10
3.653246561686198
 20
-1.614581637912326
 30
0.0
 10
3.708777533637153
 20
-1.637469821506076
 30
0.0
 10
3.733107672797309
 20
-1.625733269585503
 30
0.0
 10
3.785895453559028
 20
-1.600269741482205
 30
0.0
 10
3.828951517740885
 20
-1.57177480061849
 30
0.0
 10
3.888281928168403
 20
-1.561663309733073
 30
0.0
 10
3.938765631781684
 20
-1.55305904812283
 30
0.0
 10
3.985237969292534
 20
-1.554313659667969
 30
0.0
 10
4.033354865180121
 20
-1.535287645128038
 30
0.0
 10
4.051156785753038
 20
-1.528248257107205
 30
0.0
 10
4.051653544108072
 20
-1.503028869628906
 30
0.0
 10
4.033354865180121
 20
-1.496161566840278
 30
0.0
  0
SPLINE
  5
43
330
1F
100
AcDbEntity
  8
Layer 2
370
     0
100
AcDbSpline
210
0.0
220
0.0
230
1.0
 70
    11
 71
     3
 72
    23
 73
    19
 74
     0
 42
0.0000000001
 43
0.0000000001
 12
1.0
 22
0.0
 32
0.0
 13
1.0
 23
0.0
 33
0.0
 40
0.0
 40
0.0
 40
0.0
 40
0.0
 40
1.0
 40
1.0
 40
1.0
 40
2.0
 40
2.0
 40
2.0
 40
3.0
 40
3.0
 40
3.0
 40
4.0
 40
4.0
 40
4.0
 40
5.0
 40
5.0
 40
5.0
 40
6.0
 40
6.0
 40
6.0
 40
6.0
 10
4.029184129503038
 20
-1.607919481065538
 30
0.0
 10
4.000291612413195
 20
-1.567597283257378
 30
0.0
 10
3.936426798502604
 20
-1.573685540093316
 30
0.0
 10
3.893288506401909
 20
-1.580997043185764
 30
0.0
 10
3.846480475531684
 20
-1.58893076578776
 30
0.0
 10
3.796041700575087
 20
-1.608670552571615
 30
0.0
 10
3.765138414171007
 20
-1.645928276909722
 30
0.0
 10
3.733680725097656
 20
-1.683854844835069
 30
0.0
 10
3.799375745985243
 20
-1.702879163953993
 30
0.0
 10
3.825263977050781
 20
-1.69402821858724
 30
0.0
 10
3.857560899522569
 20
-1.682986789279514
 30
0.0
 10
3.886876424153646
 20
-1.66680908203125
 30
0.0
 10
3.921476576063368
 20
-1.662793477376302
 30
0.0
 10
3.95294443766276
 20
-1.65914069281684
 30
0.0
 10
3.986119588216146
 20
-1.667170206705729
 30
0.0
 10
4.014995998806423
 20
-1.651210361056858
 30
0.0
 10
4.030820210774739
 20
-1.642463684082031
 30
0.0
 10
4.041295369466146
 20
-1.624820285373264
 30
0.0
 10
4.029184129503038
 20
-1.607919481065538
 30
0.0
  0
INSERT
  5
45
330
1F
100
AcDbEntity
  8
Layer 2
100
AcDbBlockReference
  2
block 2
 10
0.0
 20
0.0
 30
0.0
  0
SPLINE
  5
4A
330
1F
100
AcDbEntity
  8
Layer 2
370
     0
100
AcDbSpline
210
0.0
220
0.0
230
1.0
 70
    11
 71
     3
 72
    38
 73
    34
 74
     0
 42
0.0000000001
 43
0.0000000001
 12
1.0
 22
0.0
 32
0.0
 13
1.0
 23
0.0
 33
0.0
 40
0.0
 40
0.0
 40
0.0
 40
0.0
 40
1.0
 40
1.0
 40
1.0
 40
2.0
 40
2.0
 40
2.0
 40
3.0
 40
3.0
 40
3.0
 40
4.0
 40
4.0
 40
4.0
 40
5.0
 40
5.0
 40
5.0
 40
6.0
 40
6.0
 40
6.0
 40
7.0
 40
7.0
 40
7.0
 40
8.0
 40
8.0
 40
8.0
 40
9.0
 40
9.0
 40
9.0
 40
10.0
 40
10.0
 40
10.0
 40
11.0
 40
11.0
 40
11.0
 40
11.0
 10
3.85856204562717
 20
-2.217411465115017
 30
0.0
 10
3.838607788085938
 20
-2.216723971896701
 30
0.0
 10
3.820588005913628
 20
-2.217330932617188
 30
0.0
 10
3.803910149468316
 20
-2.218805948893229
 30
0.0
 10
3.812548319498698
 20
-2.153180440266927
 30
0.0
 10
3.755368550618489
 20
-2.086987813313802
 30
0.0
 10
3.680107116699219
 20
-2.082934909396701
 30
0.0
 10
3.654239230685764
 20
-2.081542121039496
 30
0.0
 10
3.654535929361979
 20
-2.110724555121528
 30
0.0
 10
3.680107116699219
 20
-2.112101236979167
 30
0.0
 10
3.752952575683594
 20
-2.116024441189236
 30
0.0
 10
3.787621392144097
 20
-2.20402357313368
 30
0.0
 10
3.742548624674479
 20
-2.259416368272569
 30
0.0
 10
3.689058939615885
 20
-2.32515377468533
 30
0.0
 10
3.601112365722656
 20
-2.275484720865885
 30
0.0
 10
3.597119649251302
 20
-2.201338873969184
 30
0.0
 10
3.596061706542969
 20
-2.181685553656684
 30
0.0
 10
3.554407755533854
 20
-2.181920369466146
 30
0.0
 10
3.555452982584635
 20
-2.201338873969184
 30
0.0
 10
3.558333502875434
 20
-2.254830254448784
 30
0.0
 10
3.593300713433159
 20
-2.294503953721788
 30
0.0
 10
3.637161254882812
 20
-2.31101820203993
 30
0.0
 10
3.622060987684462
 20
-2.335801018608941
 30
0.0
 10
3.612763298882378
 20
-2.361729939778646
 30
0.0
 10
3.603953043619792
 20
-2.383756001790364
 30
0.0
 10
3.576794942220052
 20
-2.451651679144965
 30
0.0
 10
3.6107423570421
 20
-2.512758043077257
 30
0.0
 10
3.851772732204861
 20
-2.516152275933159
 30
0.0
 10
4.018964131673177
 20
-2.518507215711805
 30
0.0
 10
4.072433471679688
 20
-2.427887810601128
 30
0.0
 10
4.072433471679688
 20
-2.376966688368055
 30
0.0
 10
4.072433471679688
 20
-2.326044718424479
 30
0.0
 10
4.011575486924913
 20
-2.222687615288628
 30
0.0
 10
3.85856204562717
 20
-2.217411465115017
 30
0.0
  0
SPLINE
  5
4B
330
1F
100
AcDbEntity
  8
Layer 2
370
     0
100
AcDbSpline
210
0.0
220
0.0
230
1.0
 70
    11
 71
     3
 72
    44
 73
    40
 74
     0
 42
0.0000000001
 43
0.0000000001
 12
1.0
 22
0.0
 32
0.0
 13
1.0
 23
0.0
 33
0.0
 40
0.0
 40
0.0
 40
0.0
 40
0.0
 40
1.0
 40
1.0
 40
1.0
 40
2.0
 40
2.0
 40
2.0
 40
3.0
 40
3.0
 40
3.0
 40
4.0
 40
4.0
 40
4.0
 40
5.0
 40
5.0
 40
5.0
 40
6.0
 40
6.0
 40
6.0
 40
7.0
 40
7.0
 40
7.0
 40
8.0
 40
8.0
 40
8.0
 40
9.0
 40
9.0
 40
9.0
 40
10.0
 40
10.0
 40
10.0
 40
11.0
 40
11.0
 40
11.0
 40
12.0
 40
12.0
 40
12.0
 40
13.0
 40
13.0
 40
13.0
 40
13.0
 10
5.608612060546875
 20
-3.378873189290364
 30
0.0
 10
5.645579867892795
 20
-3.294917636447483
 30
0.0
 10
5.649673461914062
 20
-3.205579969618055
 30
0.0
 10
5.600103590223524
 20
-3.146658155653212
 30
0.0
 10
5.434171888563368
 20
-3.104544745551215
 30
0.0
 10
5.264769660101996
 20
-3.074563768174913
 30
0.0
 10
5.090092976888021
 20
-3.060759650336371
 30
0.0
 10
4.90149180094401
 20
-3.045854356553819
 30
0.0
 10
4.713266160753038
 20
-3.047958374023438
 30
0.0
 10
4.526449415418837
 20
-3.064996507432725
 30
0.0
 10
4.521916707356771
 20
-3.080941094292534
 30
0.0
 10
4.520068698459201
 20
-3.096989101833767
 30
0.0
 10
4.527735392252604
 20
-3.114073011610243
 30
0.0
 10
4.552130805121528
 20
-3.168434143066406
 30
0.0
 10
4.646573384602864
 20
-3.171744452582465
 30
0.0
 10
4.693433973524305
 20
-3.194264729817708
 30
0.0
 10
4.819442749023438
 20
-3.254823472764757
 30
0.0
 10
4.901039123535156
 20
-3.355158487955729
 30
0.0
 10
4.943395826551649
 20
-3.471346537272135
 30
0.0
 10
4.993661668565538
 20
-3.486022101508246
 30
0.0
 10
5.043741861979166
 20
-3.501987881130642
 30
0.0
 10
5.093583001030816
 20
-3.519541422526042
 30
0.0
 10
5.272779676649305
 20
-3.582653469509548
 30
0.0
 10
5.446244981553819
 20
-3.661632961697048
 30
0.0
 10
5.612603081597222
 20
-3.753307766384548
 30
0.0
 10
5.617295159233941
 20
-3.755893283420139
 30
0.0
 10
5.622015211317274
 20
-3.758589850531684
 30
0.0
 10
5.626714070638021
 20
-3.761195712619358
 30
0.0
 10
5.627335442437066
 20
-3.756930033365885
 30
0.0
 10
5.628023783365885
 20
-3.752635531955295
 30
0.0
 10
5.628516303168403
 20
-3.748428344726562
 30
0.0
 10
5.630375332302517
 20
-3.732552422417534
 30
0.0
 10
5.631248474121094
 20
-3.715581258138021
 30
0.0
 10
5.631117078993055
 20
-3.698007371690538
 30
0.0
 10
5.651426527235243
 20
-3.697048611111111
 30
0.0
 10
5.670900132921006
 20
-3.68762461344401
 30
0.0
 10
5.677519056532118
 20
-3.667821248372396
 30
0.0
 10
5.712337070041232
 20
-3.563648647732204
 30
0.0
 10
5.684460110134548
 20
-3.454460144042969
 30
0.0
 10
5.608612060546875
 20
-3.378873189290364
 30
0.0
  0
SPLINE
  5
4C
330
1F
100
AcDbEntity
  8
Layer 2
370
     0
100
AcDbSpline
210
0.0
220
0.0
230
1.0
 70
    11
 71
     3
 72
    23
 73
    19
 74
     0
 42
0.0000000001
 43
0.0000000001
 12
1.0
 22
0.0
 32
0.0
 13
1.0
 23
0.0
 33
0.0
 40
0.0
 40
0.0
 40
0.0
 40
0.0
 40
1.0
 40
1.0
 40
1.0
 40
2.0
 40
2.0
 40
2.0
 40
3.0
 40
3.0
 40
3.0
 40
4.0
 40
4.0
 40
4.0
 40
5.0
 40
5.0
 40
5.0
 40
6.0
 40
6.0
 40
6.0
 40
6.0
 10
3.989719814724392
 20
-1.751939561631944
 30
0.0
 10
4.018488566080729
 20
-1.755591498480903
 30
0.0
 10
4.044468349880642
 20
-1.756857130262587
 30
0.0
 10
4.073265075683594
 20
-1.752098931206597
 30
0.0
 10
4.088934156629774
 20
-1.749510871039496
 30
0.0
 10
4.10496351453993
 20
-1.735550774468316
 30
0.0
 10
4.10496351453993
 20
-1.718793233235677
 30
0.0
 10
4.10496351453993
 20
-1.702073838975694
 30
0.0
 10
4.088963826497396
 20
-1.688079833984375
 30
0.0
 10
4.073265075683594
 20
-1.685486687554253
 30
0.0
 10
4.044518364800347
 20
-1.680736965603298
 30
0.0
 10
4.018491109212239
 20
-1.681994120279948
 30
0.0
 10
3.989719814724392
 20
-1.685646057128906
 30
0.0
 10
3.974109225802951
 20
-1.687627156575521
 30
0.0
 10
3.95817396375868
 20
-1.702529059516059
 30
0.0
 10
3.95817396375868
 20
-1.718793233235677
 30
0.0
 10
3.95817396375868
 20
-1.73502434624566
 30
0.0
 10
3.974073621961805
 20
-1.749954223632812
 30
0.0
 10
3.989719814724392
 20
-1.751939561631944
 30
0.0
  0
SPLINE
  5
4D
330
1F
100
AcDbEntity
  8
Layer 2
370
     0
100
AcDbSpline
210
0.0
220
0.0
230
1.0
 70
    11
 71
     3
 72
    29
 73
    25
 74
     0
 42
0.0000000001
 43
0.0000000001
 12
1.0
 22
0.0
 32
0.0
 13
1.0
 23
0.0
 33
0.0
 40
0.0
 40
0.0
 40
0.0
 40
0.0
 40
1.0
 40
1.0
 40
1.0
 40
2.0
 40
2.0
 40
2.0
 40
3.0
 40
3.0
 40
3.0
 40
4.0
 40
4.0
 40
4.0
 40
5.0
 40
5.0
 40
5.0
 40
6.0
 40
6.0
 40
6.0
 40
7.0
 40
7.0
 40
7.0
 40
8.0
 40
8.0
 40
8.0
 40
8.0
 10
4.255752563476562
 20
-2.295491536458333
 30
0.0
 10
4.303279452853732
 20
-2.268333435058594
 30
0.0
 10
4.24896240234375
 20
-2.118962605794271
 30
0.0
 10
4.09959242078993
 20
-2.020513746473524
 30
0.0
 10
4.09959242078993
 20
-2.020513746473524
 30
0.0
 10
4.12675052218967
 20
-1.891511705186632
 30
0.0
 10
3.926457722981771
 20
-1.823616027832031
 30
0.0
 10
3.726165771484375
 20
-1.75572035047743
 30
0.0
 10
3.478346082899305
 20
-1.87793223063151
 30
0.0
 10
3.407055324978298
 20
-2.057856241861979
 30
0.0
 10
3.335764567057292
 20
-2.237780253092448
 30
0.0
 10
3.407055324978298
 20
-2.346413506401909
 30
0.0
 10
3.471555921766493
 20
-2.373571607801649
 30
0.0
 10
3.471555921766493
 20
-2.373571607801649
 30
0.0
 10
3.390081617567274
 20
-2.190252516004774
 30
0.0
 10
3.559820387098524
 20
-2.057856241861979
 30
0.0
 10
3.729560004340278
 20
-1.92545912000868
 30
0.0
 10
4.052064683702257
 20
-2.000144958496094
 30
0.0
 10
4.130144755045572
 20
-2.122356838650174
 30
0.0
 10
4.208225674099392
 20
-2.244569566514757
 30
0.0
 10
4.150513543023004
 20
-2.349807739257812
 30
0.0
 10
4.109776814778646
 20
-2.400729709201389
 30
0.0
 10
4.109776814778646
 20
-2.400729709201389
 30
0.0
 10
4.208225674099392
 20
-2.322649637858073
 30
0.0
 10
4.255752563476562
 20
-2.295491536458333
 30
0.0
  0
SPLINE
  5
4E
330
1F
100
AcDbEntity
  8
Layer 2
370
     0
100
AcDbSpline
210
0.0
220
0.0
230
1.0
 70
    11
 71
     3
 72
    50
 73
    46
 74
     0
 42
0.0000000001
 43
0.0000000001
 12
1.0
 22
0.0
 32
0.0
 13
1.0
 23
0.0
 33
0.0
 40
0.0
 40
0.0
 40
0.0
 40
0.0
 40
1.0
 40
1.0
 40
1.0
 40
2.0
 40
2.0
 40
2.0
 40
3.0
 40
3.0
 40
3.0
 40
4.0
 40
4.0
 40
4.0
 40
5.0
 40
5.0
 40
5.0
 40
6.0
 40
6.0
 40
6.0
 40
7.0
 40
7.0
 40
7.0
 40
8.0
 40
8.0
 40
8.0
 40
9.0
 40
9.0
 40
9.0
 40
10.0
 40
10.0
 40
10.0
 40
11.0
 40
11.0
 40
11.0
 40
12.0
 40
12.0
 40
12.0
 40
13.0
 40
13.0
 40
13.0
 40
14.0
 40
14.0
 40
14.0
 40
15.0
 40
15.0
 40
15.0
 40
15.0
 10
0.514556884765625
 20
-4.78928460015191
 30
0.0
 10
0.510510762532552
 20
-4.82405768500434
 30
0.0
 10
0.5102835761176215
 20
-4.857899983723958
 30
0.0
 10
0.5153800116644965
 20
-4.89382086859809
 30
0.0
 10
0.5194066365559895
 20
-4.922203063964844
 30
0.0
 10
0.5683102077907985
 20
-4.937199062771267
 30
0.0
 10
0.5836215549045138
 20
-4.908607482910156
 30
0.0
 10
0.5938449435763888
 20
-4.889517890082465
 30
0.0
 10
0.602262708875868
 20
-4.870143466525607
 30
0.0
 10
0.609389411078559
 20
-4.850501166449653
 30
0.0
 10
0.64300537109375
 20
-4.875323825412326
 30
0.0
 10
0.6913808186848958
 20
-4.882390340169271
 30
0.0
 10
0.7270948621961805
 20
-4.859396192762587
 30
0.0
 10
0.7384618123372395
 20
-4.852077907986111
 30
0.0
 10
0.7487208048502604
 20
-4.843716091579861
 30
0.0
 10
0.758421156141493
 20
-4.834827846950954
 30
0.0
 10
0.7623214721679688
 20
-4.835602654351129
 30
0.0
 10
0.766249762641059
 20
-4.836114671495225
 30
0.0
 10
0.7701916164822048
 20
-4.836422390407986
 30
0.0
 10
0.7664057413736979
 20
-4.840514289008246
 30
0.0
 10
0.762497795952691
 20
-4.844496832953559
 30
0.0
 10
0.7587500678168403
 20
-4.848621792263454
 30
0.0
 10
0.7088436550564235
 20
-4.903556823730469
 30
0.0
 10
0.6375986735026041
 20
-4.975118849012587
 30
0.0
 10
0.6141094631618923
 20
-5.046276516384548
 30
0.0
 10
0.5990091959635416
 20
-5.092020670572916
 30
0.0
 10
0.665678236219618
 20
-5.100799560546875
 30
0.0
 10
0.6924557156032985
 20
-5.082761976453993
 30
0.0
 10
0.7484825981987847
 20
-5.045022752549913
 30
0.0
 10
0.7897974650065104
 20
-4.980745951334635
 30
0.0
 10
0.836147732204861
 20
-4.931763543023004
 30
0.0
 10
0.8862821790907117
 20
-4.878781636555989
 30
0.0
 10
0.9363377888997395
 20
-4.826218499077691
 30
0.0
 10
0.9926223754882812
 20
-4.779608832465278
 30
0.0
 10
1.095243665907118
 20
-4.694628397623697
 30
0.0
 10
1.21213616265191
 20
-4.633143107096354
 30
0.0
 10
1.343556722005208
 20
-4.607798258463541
 30
0.0
 10
1.373225741916233
 20
-4.602076212565104
 30
0.0
 10
1.390109592013889
 20
-4.578206380208333
 30
0.0
 10
1.385156419542101
 20
-4.549185011121962
 30
0.0
 10
1.368550618489583
 20
-4.451894972059462
 30
0.0
 10
1.371361626519097
 20
-4.356540256076388
 30
0.0
 10
1.386824713812934
 20
-4.263055589463976
 30
0.0
 10
1.075540330674913
 20
-4.401074727376302
 30
0.0
 10
0.7817111545138888
 20
-4.578091939290364
 30
0.0
 10
0.514556884765625
 20
-4.78928460015191
 30
0.0
  0
SPLINE
  5
4F
330
1F
100
AcDbEntity
  8
Layer 2
370
     0
100
AcDbSpline
210
0.0
220
0.0
230
1.0
 70
    11
 71
     3
 72
    38
 73
    34
 74
     0
 42
0.0000000001
 43
0.0000000001
 12
1.0
 22
0.0
 32
0.0
 13
1.0
 23
0.0
 33
0.0
 40
0.0
 40
0.0
 40
0.0
 40
0.0
 40
1.0
 40
1.0
 40
1.0
 40
2.0
 40
2.0
 40
2.0
 40
3.0
 40
3.0
 40
3.0
 40
4.0
 40
4.0
 40
4.0
 40
5.0
 40
5.0
 40
5.0
 40
6.0
 40
6.0
 40
6.0
 40
7.0
 40
7.0
 40
7.0
 40
8.0
 40
8.0
 40
8.0
 40
9.0
 40
9.0
 40
9.0
 40
10.0
 40
10.0
 40
10.0
 40
11.0
 40
11.0
 40
11.0
 40
11.0
 10
1.917003207736545
 20
-2.55934566921658
 30
0.0
 10
1.912510342068142
 20
-2.501349555121528
 30
0.0
 10
1.859714931911892
 20
-2.448287963867188
 30
0.0
 10
1.79258049858941
 20
-2.444672478569878
 30
0.0
 10
1.766711764865451
 20
-2.44327884250217
 30
0.0
 10
1.76700931125217
 20
-2.472462124294705
 30
0.0
 10
1.79258049858941
 20
-2.473838806152344
 30
0.0
 10
1.865425957573785
 20
-2.477762010362413
 30
0.0
 10
1.900093926323785
 20
-2.565761142306858
 30
0.0
 10
1.85502200656467
 20
-2.621153089735243
 30
0.0
 10
1.801532321506076
 20
-2.686891343858507
 30
0.0
 10
1.713585747612847
 20
-2.637222290039062
 30
0.0
 10
1.709593031141493
 20
-2.563076443142361
 30
0.0
 10
1.708534240722656
 20
-2.543423122829861
 30
0.0
 10
1.666880289713542
 20
-2.543657938639323
 30
0.0
 10
1.667926364474826
 20
-2.563076443142361
 30
0.0
 10
1.671029832628038
 20
-2.620695326063368
 30
0.0
 10
1.711329989963108
 20
-2.662366231282552
 30
0.0
 10
1.759917365180121
 20
-2.676211886935764
 30
0.0
 10
1.723326789008246
 20
-2.764546712239583
 30
0.0
 10
1.768987867567274
 20
-2.832121107313368
 30
0.0
 10
1.768987867567274
 20
-2.832121107313368
 30
0.0
 10
1.768987867567274
 20
-2.832121107313368
 30
0.0
 10
1.895453559027778
 20
-2.87186770968967
 30
0.0
 10
1.99662611219618
 20
-2.857414245605469
 30
0.0
 10
2.097798665364583
 20
-2.842960781521267
 30
0.0
 10
2.188131544325087
 20
-2.767081366644965
 30
0.0
 10
2.188131544325087
 20
-2.767081366644965
 30
0.0
 10
2.188131544325087
 20
-2.767081366644965
 30
0.0
 10
2.217038472493489
 20
-2.691201951768663
 30
0.0
 10
2.144771999782986
 20
-2.615322536892361
 30
0.0
 10
2.10044691297743
 20
-2.568781534830729
 30
0.0
 10
2.003155178493924
 20
-2.545487297905816
 30
0.0
 10
1.917003207736545
 20
-2.55934566921658
 30
0.0
  0
SPLINE
  5
50
330
1F
100
AcDbEntity
  8
Layer 2
370
     0
100
AcDbSpline
210
0.0
220
0.0
230
1.0
 70
    11
 71
     3
 72
    11
 73
     7
 74
     0
 42
0.0000000001
 43
0.0000000001
 12
1.0
 22
0.0
 32
0.0
 13
1.0
 23
0.0
 33
0.0
 40
0.0
 40
0.0
 40
0.0
 40
0.0
 40
1.0
 40
1.0
 40
1.0
 40
2.0
 40
2.0
 40
2.0
 40
2.0
 10
2.654763963487413
 20
-4.019494798448351
 30
0.0
 10
2.654311286078559
 20
-4.019679599338107
 30
0.0
 10
2.653867085774739
 20
-4.019855923122829
 30
0.0
 10
2.653412712944878
 20
-4.020043267144097
 30
0.0
 10
2.629881964789496
 20
-4.029732598198785
 30
0.0
 10
2.635708279079861
 20
-4.032073126898871
 30
0.0
 10
2.654763963487413
 20
-4.019494798448351
 30
0.0
  0
SPLINE
  5
51
330
1F
100
AcDbEntity
  8
Layer 2
370
     0
100
AcDbSpline
210
0.0
220
0.0
230
1.0
 70
    11
 71
     3
 72
   233
 73
   229
 74
     0
 42
0.0000000001
 43
0.0000000001
 12
1.0
 22
0.0
 32
0.0
 13
1.0
 23
0.0
 33
0.0
 40
0.0
 40
0.0
 40
0.0
 40
0.0
 40
1.0
 40
1.0
 40
1.0
 40
2.0
 40
2.0
 40
2.0
 40
3.0
 40
3.0
 40
3.0
 40
4.0
 40
4.0
 40
4.0
 40
5.0
 40
5.0
 40
5.0
 40
6.0
 40
6.0
 40
6.0
 40
7.0
 40
7.0
 40
7.0
 40
8.0
 40
8.0
 40
8.0
 40
9.0
 40
9.0
 40
9.0
 40
10.0
 40
10.0
 40
10.0
 40
11.0
 40
11.0
 40
11.0
 40
12.0
 40
12.0
 40
12.0
 40
13.0
 40
13.0
 40
13.0
 40
14.0
 40
14.0
 40
14.0
 40
15.0
 40
15.0
 40
15.0
 40
16.0
 40
16.0
 40
16.0
 40
17.0
 40
17.0
 40
17.0
 40
18.0
 40
18.0
 40
18.0
 40
19.0
 40
19.0
 40
19.0
 40
20.0
 40
20.0
 40
20.0
 40
21.0
 40
21.0
 40
21.0
 40
22.0
 40
22.0
 40
22.0
 40
23.0
 40
23.0
 40
23.0
 40
24.0
 40
24.0
 40
24.0
 40
25.0
 40
25.0
 40
25.0
 40
26.0
 40
26.0
 40
26.0
 40
27.0
 40
27.0
 40
27.0
 40
28.0
 40
28.0
 40
28.0
 40
29.0
 40
29.0
 40
29.0
 40
30.0
 40
30.0
 40
30.0
 40
31.0
 40
31.0
 40
31.0
 40
32.0
 40
32.0
 40
32.0
 40
33.0
 40
33.0
 40
33.0
 40
34.0
 40
34.0
 40
34.0
 40
35.0
 40
35.0
 40
35.0
 40
36.0
 40
36.0
 40
36.0
 40
37.0
 40
37.0
 40
37.0
 40
38.0
 40
38.0
 40
38.0
 40
39.0
 40
39.0
 40
39.0
 40
40.0
 40
40.0
 40
40.0
 40
41.0
 40
41.0
 40
41.0
 40
42.0
 40
42.0
 40
42.0
 40
43.0
 40
43.0
 40
43.0
 40
44.0
 40
44.0
 40
44.0
 40
45.0
 40
45.0
 40
45.0
 40
46.0
 40
46.0
 40
46.0
 40
47.0
 40
47.0
 40
47.0
 40
48.0
 40
48.0
 40
48.0
 40
49.0
 40
49.0
 40
49.0
 40
50.0
 40
50.0
 40
50.0
 40
51.0
 40
51.0
 40
51.0
 40
52.0
 40
52.0
 40
52.0
 40
53.0
 40
53.0
 40
53.0
 40
54.0
 40
54.0
 40
54.0
 40
55.0
 40
55.0
 40
55.0
 40
56.0
 40
56.0
 40
56.0
 40
57.0
 40
57.0
 40
57.0
 40
58.0
 40
58.0
 40
58.0
 40
59.0
 40
59.0
 40
59.0
 40
60.0
 40
60.0
 40
60.0
 40
61.0
 40
61.0
 40
61.0
 40
62.0
 40
62.0
 40
62.0
 40
63.0
 40
63.0
 40
63.0
 40
64.0
 40
64.0
 40
64.0
 40
65.0
 40
65.0
 40
65.0
 40
66.0
 40
66.0
 40
66.0
 40
67.0
 40
67.0
 40
67.0
 40
68.0
 40
68.0
 40
68.0
 40
69.0
 40
69.0
 40
69.0
 40
70.0
 40
70.0
 40
70.0
 40
71.0
 40
71.0
 40
71.0
 40
72.0
 40
72.0
 40
72.0
 40
73.0
 40
73.0
 40
73.0
 40
74.0
 40
74.0
 40
74.0
 40
75.0
 40
75.0
 40
75.0
 40
76.0
 40
76.0
 40
76.0
 40
76.0
 10
1.67494879828559
 20
-3.025341457790799
 30
0.0
 10
1.578726874457465
 20
-3.045375400119358
 30
0.0
 10
1.504055447048611
 20
-3.10874769422743
 30
0.0
 10
1.405695597330729
 20
-3.048728942871094
 30
0.0
 10
1.330314636230469
 20
-3.002731323242188
 30
0.0
 10
1.311165703667535
 20
-2.928587171766493
 30
0.0
 10
1.268299526638455
 20
-2.858295016818576
 30
0.0
 10
1.262548658582899
 20
-2.848865085177951
 30
0.0
 10
1.251116434733073
 20
-2.845438639322917
 30
0.0
 10
1.240183512369792
 20
-2.846752590603299
 30
0.0
 10
1.236362881130642
 20
-2.845642937554253
 30
0.0
 10
1.232048034667969
 20
-2.845801459418403
 30
0.0
 10
1.228646172417535
 20
-2.847489251030816
 30
0.0
 10
1.168990241156684
 20
-2.877086215549045
 30
0.0
 10
1.141879611545139
 20
-2.954627990722656
 30
0.0
 10
1.122774759928385
 20
-3.014911227756076
 30
0.0
 10
1.117507934570312
 20
-3.031529744466146
 30
0.0
 10
1.113118489583333
 20
-3.048416137695312
 30
0.0
 10
1.109441121419271
 20
-3.0654542711046
 30
0.0
 10
1.093062506781684
 20
-3.028396606445312
 30
0.0
 10
1.08534664577908
 20
-2.988522847493489
 30
0.0
 10
1.094208611382378
 20
-2.943795098198784
 30
0.0
 10
1.110067579481337
 20
-2.863755120171441
 30
0.0
 10
1.165937635633681
 20
-2.807481553819444
 30
0.0
 10
1.237827724880642
 20
-2.774058024088542
 30
0.0
 10
1.255871242947048
 20
-2.76566908094618
 30
0.0
 10
1.272789001464844
 20
-2.738409254286024
 30
0.0
 10
1.255413479275173
 20
-2.720403883192274
 30
0.0
 10
1.22743903266059
 20
-2.691414727105034
 30
0.0
 10
1.229916042751736
 20
-2.651414659288194
 30
0.0
 10
1.200169881184896
 20
-2.626815795898438
 30
0.0
 10
1.194867451985677
 20
-2.622430589463975
 30
0.0
 10
1.186178419325087
 20
-2.621777004665799
 30
0.0
 10
1.18005116780599
 20
-2.62473890516493
 30
0.0
 10
1.143360561794705
 20
-2.64247555202908
 30
0.0
 10
1.141644795735677
 20
-2.680764092339409
 30
0.0
 10
1.151930067274306
 20
-2.716153462727864
 30
0.0
 10
1.069498697916667
 20
-2.748713175455729
 30
0.0
 10
1.006870693630642
 20
-2.823643154568142
 30
0.0
 10
0.9828559027777777
 20
-2.909945170084635
 30
0.0
 10
0.9563734266493055
 20
-3.005114237467448
 30
0.0
 10
0.9859712388780382
 20
-3.086862352159288
 30
0.0
 10
1.03511471218533
 20
-3.162434895833333
 30
0.0
 10
0.8928638034396701
 20
-3.178954230414496
 30
0.0
 10
0.7522498236762153
 20
-3.226449754503038
 30
0.0
 10
0.6492326524522569
 20
-3.329282972547743
 30
0.0
 10
0.6414388020833333
 20
-3.337063259548611
 30
0.0
 10
0.6339755588107638
 20
-3.345220777723524
 30
0.0
 10
0.6267022026909722
 20
-3.353568183051215
 30
0.0
 10
0.5967458089192708
 20
-3.268765767415364
 30
0.0
 10
0.5393083360460069
 20
-3.189795600043403
 30
0.0
 10
0.540390862358941
 20
-3.098821851942274
 30
0.0
 10
0.5410241021050347
 20
-3.045555114746094
 30
0.0
 10
0.579636467827691
 20
-3.014560275607639
 30
0.0
 10
0.5877702501085069
 20
-2.965549045138889
 30
0.0
 10
0.5943484836154513
 20
-2.925913492838542
 30
0.0
 10
0.5766838921440972
 20
-2.891036987304688
 30
0.0
 10
0.5521952311197916
 20
-2.860893249511719
 30
0.0
 10
0.4929470486111111
 20
-2.787962171766493
 30
0.0
 10
0.4230397542317708
 20
-2.732432895236545
 30
0.0
 10
0.376969231499566
 20
-2.647940741644965
 30
0.0
 10
0.328537835015191
 20
-2.559117635091146
 30
0.0
 10
0.3002251519097222
 20
-2.457961188422309
 30
0.0
 10
0.2969301011827257
 20
-2.356832716200087
 30
0.0
 10
0.2934926350911458
 20
-2.251343621148003
 30
0.0
 10
0.3014763726128472
 20
-2.159255981445312
 30
0.0
 10
0.2638685438368055
 20
-2.058164808485243
 30
0.0
 10
0.2264921400282118
 20
-1.957695007324219
 30
0.0
 10
0.1820941501193576
 20
-1.864234076605903
 30
0.0
 10
0.1629536946614583
 20
-1.757727728949653
 30
0.0
 10
0.1332812839084201
 20
-1.592613220214844
 30
0.0
 10
0.1330905490451389
 20
-1.339406331380208
 30
0.0
 10
0.2441948784722222
 20
-1.190008375379774
 30
0.0
 10
0.3019849989149305
 20
-1.16589101155599
 30
0.0
 10
0.3778873019748264
 20
-1.162972344292535
 30
0.0
 10
0.4269578721788194
 20
-1.162389967176649
 30
0.0
 10
0.5156572129991319
 20
-1.161337110731337
 30
0.0
 10
0.6033113267686632
 20
-1.172867668999566
 30
0.0
 10
0.6891386244032117
 20
-1.195198906792535
 30
0.0
 10
0.8560858832465277
 20
-1.238636440700955
 30
0.0
 10
1.014047410753038
 20
-1.320202297634548
 30
0.0
 10
1.158532884385851
 20
-1.413240220811632
 30
0.0
 10
1.287309434678819
 20
-1.496163262261285
 30
0.0
 10
1.407776726616753
 20
-1.591851128472222
 30
0.0
 10
1.517283969455295
 20
-1.698950025770399
 30
0.0
 10
1.58481682671441
 20
-1.76499769422743
 30
0.0
 10
1.642507765028212
 20
-1.839641994900173
 30
0.0
 10
1.701850043402778
 20
-1.91259765625
 30
0.0
 10
1.609775119357639
 20
-1.882571750217014
 30
0.0
 10
1.491073608398438
 20
-1.887340969509548
 30
0.0
 10
1.423970540364583
 20
-1.935329013400608
 30
0.0
 10
1.402765909830729
 20
-1.950493706597222
 30
0.0
 10
1.416826036241319
 20
-1.98156483968099
 30
0.0
 10
1.440130445692274
 20
-1.984295315212673
 30
0.0
 10
1.442365010579427
 20
-1.984557257758246
 30
0.0
 10
1.444595336914062
 20
-1.984608968098958
 30
0.0
 10
1.446828206380208
 20
-1.984810723198785
 30
0.0
 10
1.384160359700521
 20
-2.000933329264323
 30
0.0
 10
1.324573940700955
 20
-2.028060913085938
 30
0.0
 10
1.278775533040365
 20
-2.058695475260417
 30
0.0
 10
1.246795654296875
 20
-2.080085754394531
 30
0.0
 10
1.289288838704427
 20
-2.10652838812934
 30
0.0
 10
1.311554802788628
 20
-2.103744506835938
 30
0.0
 10
1.370386759440104
 20
-2.096388922797309
 30
0.0
 10
1.427688598632812
 20
-2.077485826280382
 30
0.0
 10
1.485926310221354
 20
-2.066212124294705
 30
0.0
 10
1.547913445366753
 20
-2.054211934407552
 30
0.0
 10
1.605138142903646
 20
-2.060339185926649
 30
0.0
 10
1.66748046875
 20
-2.062708536783854
 30
0.0
 10
1.706727769639757
 20
-2.064199659559462
 30
0.0
 10
1.727344936794705
 20
-2.01784430609809
 30
0.0
 10
1.68941413031684
 20
-1.997923956976996
 30
0.0
 10
1.688417222764757
 20
-1.997400071885851
 30
0.0
 10
1.68733893500434
 20
-1.997037251790365
 30
0.0
 10
1.686334398057726
 20
-1.996529473198785
 30
0.0
 10
1.713838365342882
 20
-2.001647101508246
 30
0.0
 10
1.741384718153212
 20
-2.006612989637587
 30
0.0
 10
1.769817776150173
 20
-2.008787367078993
 30
0.0
 10
1.77439456515842
 20
-2.009137471516927
 30
0.0
 10
1.778668721516927
 20
-2.008507622612847
 30
0.0
 10
1.782542758517795
 20
-2.007202996148004
 30
0.0
 10
1.799317253960503
 20
-2.02565680609809
 30
0.0
 10
1.816410488552517
 20
-2.043814765082465
 30
0.0
 10
1.834363301595052
 20
-2.0611818101671
 30
0.0
 10
1.84368896484375
 20
-2.070203993055555
 30
0.0
 10
1.863205803765191
 20
-2.068912929958767
 30
0.0
 10
1.87390391031901
 20
-2.060540093315972
 30
0.0
 10
1.892656962076823
 20
-2.060945298936632
 30
0.0
 10
1.912489149305555
 20
-2.055528428819444
 30
0.0
 10
1.927747938368055
 20
-2.048393249511719
 30
0.0
 10
1.967444525824653
 20
-2.029831780327691
 30
0.0
 10
2.003280639648438
 20
-1.994371202256944
 30
0.0
 10
2.024492899576823
 20
-1.956335279676649
 30
0.0
 10
2.054108513726129
 20
-1.903228759765625
 30
0.0
 10
2.051873101128472
 20
-1.796393500434028
 30
0.0
 10
1.986687554253472
 20
-1.778871324327257
 30
0.0
 10
1.997354295518663
 20
-1.778589884440104
 30
0.0
 10
2.00802018907335
 20
-1.779103597005208
 30
0.0
 10
2.018694559733073
 20
-1.781645880805121
 30
0.0
 10
2.051905314127604
 20
-1.789555867513021
 30
0.0
 10
2.074346754286024
 20
-1.816582573784722
 30
0.0
 10
2.108183119032118
 20
-1.821409437391493
 30
0.0
 10
2.130646599663629
 20
-1.824613783094618
 30
0.0
 10
2.167689005533854
 20
-1.812004937065972
 30
0.0
 10
2.157435946994358
 20
-1.782007005479601
 30
0.0
 10
2.14341057671441
 20
-1.740973578559028
 30
0.0
 10
2.083155314127604
 20
-1.717396206325955
 30
0.0
 10
2.043421427408854
 20
-1.709891425238715
 30
0.0
 10
2.002232869466146
 20
-1.702111985948351
 30
0.0
 10
1.950711568196615
 20
-1.704344855414496
 30
0.0
 10
1.910455491807726
 20
-1.721473693847656
 30
0.0
 10
1.820801628960503
 20
-1.636142306857639
 30
0.0
 10
1.721092224121094
 20
-1.559427049424913
 30
0.0
 10
1.621306525336371
 20
-1.488935682508681
 30
0.0
 10
1.476812574598524
 20
-1.38686031765408
 30
0.0
 10
1.323219299316406
 20
-1.297470940483941
 30
0.0
 10
1.156612820095486
 20
-1.23677486843533
 30
0.0
 10
0.9921018812391492
 20
-1.176843431260851
 30
0.0
 10
0.8227445814344617
 20
-1.128695170084635
 30
0.0
 10
0.6483654446072048
 20
-1.109215630425347
 30
0.0
 10
0.549363030327691
 20
-1.098156399197049
 30
0.0
 10
0.439817640516493
 20
-1.088534037272135
 30
0.0
 10
0.3430557250976562
 20
-1.117411295572917
 30
0.0
 10
0.2771267361111111
 20
-1.130611843532986
 30
0.0
 10
0.2158016628689236
 20
-1.156326293945312
 30
0.0
 10
0.1848678588867188
 20
-1.204098171657986
 30
0.0
 10
0.0951122707790799
 20
-1.30391608344184
 30
0.0
 10
0.0676964653862847
 20
-1.475130716959635
 30
0.0
 10
0.0640199449327257
 20
-1.59733412000868
 30
0.0
 10
0.0604892306857639
 20
-1.714708116319444
 30
0.0
 10
0.0799221462673611
 20
-1.831321716308594
 30
0.0
 10
0.1211166381835938
 20
-1.941270616319444
 30
0.0
 10
0.1411616007486979
 20
-1.99477301703559
 30
0.0
 10
0.1668879191080729
 20
-2.046078152126736
 30
0.0
 10
0.1850628323025174
 20
-2.100299411349826
 30
0.0
 10
0.2057698567708333
 20
-2.162075466579861
 30
0.0
 10
0.2087037828233507
 20
-2.220372517903646
 30
0.0
 10
0.2071126302083333
 20
-2.285057915581597
 30
0.0
 10
0.2021119859483507
 20
-2.488371955023871
 30
0.0
 10
0.2637032402886285
 20
-2.682934231228299
 30
0.0
 10
0.4067145453559027
 20
-2.831631130642361
 30
0.0
 10
0.4506852891710069
 20
-2.877350701226128
 30
0.0
 10
0.5187098185221354
 20
-2.915952894422743
 30
0.0
 10
0.4821955362955729
 20
-2.986329820421007
 30
0.0
 10
0.4602762858072916
 20
-3.028576321072049
 30
0.0
 10
0.4405932956271701
 20
-3.060439215766059
 30
0.0
 10
0.439208984375
 20
-3.110085381401909
 30
0.0
 10
0.4360749986436632
 20
-3.222416347927517
 30
0.0
 10
0.5131234063042535
 20
-3.318379720052083
 30
0.0
 10
0.5375374688042535
 20
-3.424581739637587
 30
0.0
 10
0.5378740098741319
 20
-3.42604743109809
 30
0.0
 10
0.5385199652777778
 20
-3.427257113986545
 30
0.0
 10
0.5389887491861979
 20
-3.428615993923611
 30
0.0
 10
0.392179701063368
 20
-3.599155002170139
 30
0.0
 10
0.3842239379882812
 20
-3.866464402940538
 30
0.0
 10
0.521134270562066
 20
-4.046179877387153
 30
0.0
 10
0.5372687445746528
 20
-4.067359076605903
 30
0.0
 10
0.5604739718967013
 20
-4.0845947265625
 30
0.0
 10
0.5754648844401041
 20
-4.10611809624566
 30
0.0
 10
0.6058434380425347
 20
-4.149735344780816
 30
0.0
 10
0.5778045654296875
 20
-4.17734612358941
 30
0.0
 10
0.552273220486111
 20
-4.215860154893663
 30
0.0
 10
0.5354054768880208
 20
-4.241305881076388
 30
0.0
 10
0.5196338229709201
 20
-4.267572191026476
 30
0.0
 10
0.5048616197374132
 20
-4.294392055935329
 30
0.0
 10
0.6554506089952257
 20
-4.248188442654079
 30
0.0
 10
0.8042653401692708
 20
-4.196409437391493
 30
0.0
 10
0.9507217407226562
 20
-4.139029608832465
 30
0.0
 10
1.142919752332899
 20
-4.063728332519531
 30
0.0
 10
1.327483283148871
 20
-3.976861741807725
 30
0.0
 10
1.507952372233073
 20
-3.882642110188802
 30
0.0
 10
1.533400641547309
 20
-3.823779635959201
 30
0.0
 10
1.560420566134983
 20
-3.765725877549913
 30
0.0
 10
1.587065802680121
 20
-3.708473205566406
 30
0.0
 10
1.608390808105469
 20
-3.662651909722222
 30
0.0
 10
1.633262634277344
 20
-3.618435329861111
 30
0.0
 10
1.613273620605469
 20
-3.567693074544271
 30
0.0
 10
1.593053181966146
 20
-3.516362508138021
 30
0.0
 10
1.544035169813368
 20
-3.482296413845486
 30
0.0
 10
1.523139953613281
 20
-3.429220411512587
 30
0.0
 10
1.486996120876736
 20
-3.337413363986545
 30
0.0
 10
1.498367309570312
 20
-3.240464952256944
 30
0.0
 10
1.536524454752604
 20
-3.153577168782552
 30
0.0
 10
1.603084140353733
 20
-3.148056030273438
 30
0.0
 10
1.668650309244792
 20
-3.122973124186198
 30
0.0
 10
1.714854770236545
 20
-3.08018324110243
 30
0.0
 10
1.746070014105903
 20
-3.051275465223524
 30
0.0
 10
1.707728915744358
 20
-3.018516540527344
 30
0.0
 10
1.67494879828559
 20
-3.025341457790799
 30
0.0
  0
SPLINE
  5
52
330
1F
100
AcDbEntity
  8
Layer 2
370
     0
100
AcDbSpline
210
0.0
220
0.0
230
1.0
 70
    11
 71
     3
 72
    83
 73
    79
 74
     0
 42
0.0000000001
 43
0.0000000001
 12
1.0
 22
0.0
 32
0.0
 13
1.0
 23
0.0
 33
0.0
 40
0.0
 40
0.0
 40
0.0
 40
0.0
 40
1.0
 40
1.0
 40
1.0
 40
2.0
 40
2.0
 40
2.0
 40
3.0
 40
3.0
 40
3.0
 40
4.0
 40
4.0
 40
4.0
 40
5.0
 40
5.0
 40
5.0
 40
6.0
 40
6.0
 40
6.0
 40
7.0
 40
7.0
 40
7.0
 40
8.0
 40
8.0
 40
8.0
 40
9.0
 40
9.0
 40
9.0
 40
10.0
 40
10.0
 40
10.0
 40
11.0
 40
11.0
 40
11.0
 40
12.0
 40
12.0
 40
12.0
 40
13.0
 40
13.0
 40
13.0
 40
14.0
 40
14.0
 40
14.0
 40
15.0
 40
15.0
 40
15.0
 40
16.0
 40
16.0
 40
16.0
 40
17.0
 40
17.0
 40
17.0
 40
18.0
 40
18.0
 40
18.0
 40
19.0
 40
19.0
 40
19.0
 40
20.0
 40
20.0
 40
20.0
 40
21.0
 40
21.0
 40
21.0
 40
22.0
 40
22.0
 40
22.0
 40
23.0
 40
23.0
 40
23.0
 40
24.0
 40
24.0
 40
24.0
 40
25.0
 40
25.0
 40
25.0
 40
26.0
 40
26.0
 40
26.0
 40
26.0
 10
3.763508266872829
 20
-3.799382527669271
 30
0.0
 10
3.658269246419271
 20
-3.738276163736979
 30
0.0
 10
3.536057366265191
 20
-3.578720940483941
 30
0.0
 10
3.410450405544704
 20
-3.408982170952691
 30
0.0
 10
3.284842597113715
 20
-3.239242553710938
 30
0.0
 10
3.132077534993489
 20
-3.24263678656684
 30
0.0
 10
3.132077534993489
 20
-3.24263678656684
 30
0.0
 10
3.132077534993489
 20
-3.24263678656684
 30
0.0
 10
3.087944878472222
 20
-2.937106662326389
 30
0.0
 10
3.087944878472222
 20
-2.937106662326389
 30
0.0
 10
3.087944878472222
 20
-2.937106662326389
 30
0.0
 10
3.129209730360243
 20
-2.909273783365885
 30
0.0
 10
3.149542066786024
 20
-2.893298678927951
 30
0.0
 10
3.252950880262587
 20
-2.812049018012153
 30
0.0
 10
3.225050184461805
 20
-2.715882195366753
 30
0.0
 10
3.20520273844401
 20
-2.673667907714844
 30
0.0
 10
3.201334635416667
 20
-2.670642428927951
 30
0.0
 10
3.197558085123698
 20
-2.667556762695312
 30
0.0
 10
3.194041781955295
 20
-2.664321899414062
 30
0.0
 10
3.156061808268229
 20
-2.629375881618924
 30
0.0
 10
3.140484280056423
 20
-2.550470140245225
 30
0.0
 10
3.193975660536024
 20
-2.521317376030816
 30
0.0
 10
3.252437167697483
 20
-2.489455329047309
 30
0.0
 10
3.304077996148003
 20
-2.539078606499566
 30
0.0
 10
3.330719841851128
 20
-2.586449517144097
 30
0.0
 10
3.3355712890625
 20
-2.59507581922743
 30
0.0
 10
3.340131123860677
 20
-2.603844536675347
 30
0.0
 10
3.344518025716146
 20
-2.612698872884114
 30
0.0
 10
3.364416334364149
 20
-2.608021206325955
 30
0.0
 10
3.386198255750868
 20
-2.603017171223958
 30
0.0
 10
3.410450405544704
 20
-2.597627427842882
 30
0.0
 10
3.56321546766493
 20
-2.563680013020833
 30
0.0
 10
3.291632758246528
 20
-2.217411465115017
 30
0.0
 10
2.918206108940972
 20
-2.312465243869358
 30
0.0
 10
2.544779459635417
 20
-2.407519022623698
 30
0.0
 10
2.54138437906901
 20
-2.767367045084635
 30
0.0
 10
2.61606936984592
 20
-2.753787570529514
 30
0.0
 10
2.63653818766276
 20
-2.750066121419271
 30
0.0
 10
2.664415995279948
 20
-2.746090359157986
 30
0.0
 10
2.694084167480469
 20
-2.742278205023871
 30
0.0
 10
2.695038689507378
 20
-2.739613003200955
 30
0.0
 10
2.696072048611111
 20
-2.737161424424913
 30
0.0
 10
2.69696299235026
 20
-2.734310574001736
 30
0.0
 10
2.707188076443142
 20
-2.701581319173177
 30
0.0
 10
2.71342044406467
 20
-2.667642381456163
 30
0.0
 10
2.73211669921875
 20
-2.638222588433159
 30
0.0
 10
2.75616455078125
 20
-2.600382486979167
 30
0.0
 10
2.808707343207465
 20
-2.568221198187934
 30
0.0
 10
2.852288140190972
 20
-2.596051534016927
 30
0.0
 10
2.891386244032118
 20
-2.621019151475694
 30
0.0
 10
2.885143703884549
 20
-2.685448540581597
 30
0.0
 10
2.868129306369358
 20
-2.721724616156684
 30
0.0
 10
2.866257561577691
 20
-2.725716484917534
 30
0.0
 10
2.864174736870659
 20
-2.729687160915799
 30
0.0
 10
2.861906263563368
 20
-2.733634101019965
 30
0.0
 10
2.858846876356337
 20
-2.754019843207465
 30
0.0
 10
2.855984157986111
 20
-2.800927056206597
 30
0.0
 10
2.88425784640842
 20
-2.842052035861545
 30
0.0
 10
2.921600341796875
 20
-2.896369086371528
 30
0.0
 10
3.037023756239149
 20
-2.937106662326389
 30
0.0
 10
3.037023756239149
 20
-2.937106662326389
 30
0.0
 10
3.037023756239149
 20
-2.937106662326389
 30
0.0
 10
3.098129272460938
 20
-3.249426947699653
 30
0.0
 10
3.098129272460938
 20
-3.249426947699653
 30
0.0
 10
2.874073452419705
 20
-3.307138231065538
 30
0.0
 10
2.829941643608941
 20
-3.670380486382378
 30
0.0
 10
2.772230360243055
 20
-3.846909417046441
 30
0.0
 10
2.738048977322049
 20
-3.951461791992188
 30
0.0
 10
2.682443406846788
 20
-4.001224093967013
 30
0.0
 10
2.654763963487413
 20
-4.019494798448351
 30
0.0
 10
2.711764017740885
 20
-3.996217515733507
 30
0.0
 10
2.753224690755208
 20
-3.990587022569444
 30
0.0
 10
2.924995422363281
 20
-3.700933668348524
 30
0.0
 10
3.098129272460938
 20
-3.408982170952691
 30
0.0
 10
3.379897223578559
 20
-3.514220343695746
 30
0.0
 10
3.556426154242621
 20
-3.670380486382378
 30
0.0
 10
3.732955084906684
 20
-3.82654062906901
 30
0.0
 10
3.868746439615885
 20
-3.860488891601562
 30
0.0
 10
3.763508266872829
 20
-3.799382527669271
 30
0.0
  0
SPLINE
  5
53
330
1F
100
AcDbEntity
  8
Layer 2
370
     0
100
AcDbSpline
210
0.0
220
0.0
230
1.0
 70
    11
 71
     3
 72
    44
 73
    40
 74
     0
 42
0.0000000001
 43
0.0000000001
 12
1.0
 22
0.0
 32
0.0
 13
1.0
 23
0.0
 33
0.0
 40
0.0
 40
0.0
 40
0.0
 40
0.0
 40
1.0
 40
1.0
 40
1.0
 40
2.0
 40
2.0
 40
2.0
 40
3.0
 40
3.0
 40
3.0
 40
4.0
 40
4.0
 40
4.0
 40
5.0
 40
5.0
 40
5.0
 40
6.0
 40
6.0
 40
6.0
 40
7.0
 40
7.0
 40
7.0
 40
8.0
 40
8.0
 40
8.0
 40
9.0
 40
9.0
 40
9.0
 40
10.0
 40
10.0
 40
10.0
 40
11.0
 40
11.0
 40
11.0
 40
12.0
 40
12.0
 40
12.0
 40
13.0
 40
13.0
 40
13.0
 40
13.0
 10
5.405011494954427
 20
-4.153540717230903
 30
0.0
 10
5.452685885959201
 20
-4.14225345187717
 30
0.0
 10
5.50016615125868
 20
-4.116606818305121
 30
0.0
 10
5.535377502441406
 20
-4.092798021104601
 30
0.0
 10
5.59096442328559
 20
-4.055213080512153
 30
0.0
 10
5.673095703125
 20
-3.980239868164062
 30
0.0
 10
5.670618693033854
 20
-3.907982720269097
 30
0.0
 10
5.669654846191406
 20
-3.879853990342882
 30
0.0
 10
5.626013861762153
 20
-3.868431091308594
 30
0.0
 10
5.607269287109375
 20
-3.886990865071614
 30
0.0
 10
5.595342848036024
 20
-3.898798624674479
 30
0.0
 10
5.585108439127604
 20
-3.911585489908854
 30
0.0
 10
5.575502183702256
 20
-3.924744500054253
 30
0.0
 10
5.591800265842013
 20
-3.891244676378038
 30
0.0
 10
5.604672749837239
 20
-3.856337653266059
 30
0.0
 10
5.614001803927951
 20
-3.821907891167534
 30
0.0
 10
5.595113966200087
 20
-3.810920715332031
 30
0.0
 10
5.576120164659288
 20
-3.800079345703125
 30
0.0
 10
5.556921217176649
 20
-3.789521111382378
 30
0.0
 10
5.404536777072482
 20
-3.705721537272135
 30
0.0
 10
5.246072557237413
 20
-3.632601420084635
 30
0.0
 10
5.082712809244791
 20
-3.572868347167969
 30
0.0
 10
5.042695787217881
 20
-3.558236016167534
 30
0.0
 10
5.002246432834201
 20
-3.544417487250434
 30
0.0
 10
4.961480882432725
 20
-3.531324598524305
 30
0.0
 10
5.002406650119357
 20
-3.700738694932725
 30
0.0
 10
4.967664930555555
 20
-3.893514845106337
 30
0.0
 10
4.870094299316406
 20
-4.044336107042101
 30
0.0
 10
4.846444871690538
 20
-4.080892774793837
 30
0.0
 10
4.883688184950087
 20
-4.110581292046441
 30
0.0
 10
4.918690151638454
 20
-4.112085130479601
 30
0.0
 10
5.199394226074219
 20
-4.124139573838976
 30
0.0
 10
5.415785895453559
 20
-4.270627339680989
 30
0.0
 10
5.625067816840278
 20
-4.444017198350695
 30
0.0
 10
5.646176656087239
 20
-4.461505466037326
 30
0.0
 10
5.688237508138021
 20
-4.443893432617188
 30
0.0
 10
5.672615051269531
 20
-4.414667765299479
 30
0.0
 10
5.612809922960069
 20
-4.302791171603732
 30
0.0
 10
5.517061869303385
 20
-4.216475592719184
 30
0.0
 10
5.405011494954427
 20
-4.153540717230903
 30
0.0
  0
SPLINE
  5
54
330
1F
100
AcDbEntity
  8
Layer 2
370
     0
100
AcDbSpline
210
0.0
220
0.0
230
1.0
 70
    11
 71
     3
 72
    23
 73
    19
 74
     0
 42
0.0000000001
 43
0.0000000001
 12
1.0
 22
0.0
 32
0.0
 13
1.0
 23
0.0
 33
0.0
 40
0.0
 40
0.0
 40
0.0
 40
0.0
 40
1.0
 40
1.0
 40
1.0
 40
2.0
 40
2.0
 40
2.0
 40
3.0
 40
3.0
 40
3.0
 40
4.0
 40
4.0
 40
4.0
 40
5.0
 40
5.0
 40
5.0
 40
6.0
 40
6.0
 40
6.0
 40
6.0
 10
1.543869018554688
 20
-2.201389736599392
 30
0.0
 10
1.565855238172743
 20
-2.199329800075955
 30
0.0
 10
1.586700439453125
 20
-2.18355475531684
 30
0.0
 10
1.573382059733073
 20
-2.160245259602864
 30
0.0
 10
1.553310818142361
 20
-2.125114440917969
 30
0.0
 10
1.497258504231771
 20
-2.118153042263455
 30
0.0
 10
1.460822211371528
 20
-2.116811116536458
 30
0.0
 10
1.42223866780599
 20
-2.115389506022135
 30
0.0
 10
1.37713877360026
 20
-2.120577494303385
 30
0.0
 10
1.349778069390191
 20
-2.149861653645833
 30
0.0
 10
1.336687723795573
 20
-2.163872612847222
 30
0.0
 10
1.353846232096354
 20
-2.182097540961371
 30
0.0
 10
1.367578294542101
 20
-2.184865315755208
 30
0.0
 10
1.396456400553385
 20
-2.190685696072049
 30
0.0
 10
1.425508287217882
 20
-2.183517456054688
 30
0.0
 10
1.454744974772135
 20
-2.186909993489583
 30
0.0
 10
1.484374152289496
 20
-2.190348307291667
 30
0.0
 10
1.514005025227865
 20
-2.20418718126085
 30
0.0
 10
1.543869018554688
 20
-2.201389736599392
 30
0.0
  0
SPLINE
  5
55
330
1F
100
AcDbEntity
  8
Layer 2
370
     0
100
AcDbSpline
210
0.0
220
0.0
230
1.0
 70
    11
 71
     3
 72
    35
 73
    31
 74
     0
 42
0.0000000001
 43
0.0000000001
 12
1.0
 22
0.0
 32
0.0
 13
1.0
 23
0.0
 33
0.0
 40
0.0
 40
0.0
 40
0.0
 40
0.0
 40
1.0
 40
1.0
 40
1.0
 40
2.0
 40
2.0
 40
2.0
 40
3.0
 40
3.0
 40
3.0
 40
4.0
 40
4.0
 40
4.0
 40
5.0
 40
5.0
 40
5.0
 40
6.0
 40
6.0
 40
6.0
 40
7.0
 40
7.0
 40
7.0
 40
8.0
 40
8.0
 40
8.0
 40
9.0
 40
9.0
 40
9.0
 40
10.0
 40
10.0
 40
10.0
 40
10.0
 10
2.303749084472656
 20
-2.336229112413194
 30
0.0
 10
2.235853407118055
 20
-2.244569566514757
 30
0.0
 10
2.086482577853733
 20
-2.129146999782986
 30
0.0
 10
1.879400465223524
 20
-2.129146999782986
 30
0.0
 10
1.672318352593316
 20
-2.129146999782986
 30
0.0
 10
1.431288825141059
 20
-2.376966688368055
 30
0.0
 10
1.556895785861545
 20
-2.502573649088542
 30
0.0
 10
1.556895785861545
 20
-2.502573649088542
 30
0.0
 10
1.505973815917969
 20
-2.590838114420573
 30
0.0
 10
1.49918450249566
 20
-2.648549397786458
 30
0.0
 10
1.492395189073351
 20
-2.706260681152344
 30
0.0
 10
1.461842007107205
 20
-2.746998257107205
 30
0.0
 10
1.438078138563368
 20
-2.763971964518229
 30
0.0
 10
1.414315117730035
 20
-2.780945671929253
 30
0.0
 10
1.502579583062066
 20
-2.825078328450521
 30
0.0
 10
1.702871534559462
 20
-2.828473409016927
 30
0.0
 10
1.702871534559462
 20
-2.828473409016927
 30
0.0
 10
1.553501553005642
 20
-2.787735833062066
 30
0.0
 10
1.573869493272569
 20
-2.645154317220052
 30
0.0
 10
1.59423828125
 20
-2.502573649088542
 30
0.0
 10
1.743609110514323
 20
-2.278517829047309
 30
0.0
 10
2.069508870442708
 20
-2.315860324435764
 30
0.0
 10
2.395408630371094
 20
-2.353202819824219
 30
0.0
 10
2.310539245605469
 20
-2.679102579752604
 30
0.0
 10
2.25282711452908
 20
-2.736813863118489
 30
0.0
 10
2.25282711452908
 20
-2.736813863118489
 30
0.0
 10
2.3988037109375
 20
-2.651944478352864
 30
0.0
 10
2.429356045193142
 20
-2.482204861111111
 30
0.0
 10
2.429356045193142
 20
-2.482204861111111
 30
0.0
 10
2.371644761827257
 20
-2.427887810601128
 30
0.0
 10
2.303749084472656
 20
-2.336229112413194
 30
0.0
  0
SPLINE
  5
56
330
1F
100
AcDbEntity
  8
Layer 2
370
     0
100
AcDbSpline
210
0.0
220
0.0
230
1.0
 70
    11
 71
     3
 72
    41
 73
    37
 74
     0
 42
0.0000000001
 43
0.0000000001
 12
1.0
 22
0.0
 32
0.0
 13
1.0
 23
0.0
 33
0.0
 40
0.0
 40
0.0
 40
0.0
 40
0.0
 40
1.0
 40
1.0
 40
1.0
 40
2.0
 40
2.0
 40
2.0
 40
3.0
 40
3.0
 40
3.0
 40
4.0
 40
4.0
 40
4.0
 40
5.0
 40
5.0
 40
5.0
 40
6.0
 40
6.0
 40
6.0
 40
7.0
 40
7.0
 40
7.0
 40
8.0
 40
8.0
 40
8.0
 40
9.0
 40
9.0
 40
9.0
 40
10.0
 40
10.0
 40
10.0
 40
11.0
 40
11.0
 40
11.0
 40
12.0
 40
12.0
 40
12.0
 40
12.0
 10
1.365731133355035
 20
-2.246312459309896
 30
0.0
 10
1.358295016818576
 20
-2.249521043565538
 30
0.0
 10
1.351158989800347
 20
-2.253851148817274
 30
0.0
 10
1.344527350531684
 20
-2.258470323350694
 30
0.0
 10
1.334327697753906
 20
-2.265574985080295
 30
0.0
 10
1.330251905653212
 20
-2.2724855211046
 30
0.0
 10
1.328352186414931
 20
-2.284596761067708
 30
0.0
 10
1.325894673665365
 20
-2.300264994303385
 30
0.0
 10
1.348263210720486
 20
-2.311139424641927
 30
0.0
 10
1.360578748914931
 20
-2.310378180609809
 30
0.0
 10
1.369183858235677
 20
-2.309846666124132
 30
0.0
 10
1.376412285698785
 20
-2.308421664767795
 30
0.0
 10
1.384067959255642
 20
-2.304515414767795
 30
0.0
 10
1.386227077907986
 20
-2.303413391113281
 30
0.0
 10
1.388302273220486
 20
-2.302174886067708
 30
0.0
 10
1.390496148003472
 20
-2.301133897569444
 30
0.0
 10
1.391060723198785
 20
-2.300866021050347
 30
0.0
 10
1.395199245876736
 20
-2.299283345540364
 30
0.0
 10
1.396532694498698
 20
-2.298700968424479
 30
0.0
 10
1.397818671332465
 20
-2.298416137695312
 30
0.0
 10
1.400384691026476
 20
-2.297780354817708
 30
0.0
 10
1.400767856174045
 20
-2.297698974609375
 30
0.0
 10
1.403149074978298
 20
-2.297194586859809
 30
0.0
 10
1.405543009440104
 20
-2.2968995836046
 30
0.0
 10
1.407937791612413
 20
-2.296494377983941
 30
0.0
 10
1.41314951578776
 20
-2.295611911349826
 30
0.0
 10
1.418222215440538
 20
-2.294160630967882
 30
0.0
 10
1.423435635036892
 20
-2.293246799045139
 30
0.0
 10
1.436097886827257
 20
-2.291025797526042
 30
0.0
 10
1.449063618977865
 20
-2.279955546061198
 30
0.0
 10
1.449063618977865
 20
-2.266317579481337
 30
0.0
 10
1.449063618977865
 20
-2.252812703450521
 30
0.0
 10
1.436129252115885
 20
-2.241466946072049
 30
0.0
 10
1.423435635036892
 20
-2.239389207628038
 30
0.0
 10
1.402708265516493
 20
-2.235994974772135
 30
0.0
 10
1.385017395019531
 20
-2.237991333007812
 30
0.0
 10
1.365731133355035
 20
-2.246312459309896
 30
0.0
  0
HATCH
  5
57
330
1F
100
AcDbEntity
  8
Layer 2
 62
     7
420
 16777215
100
AcDbHatch
 10
0.0
 20
0.0
 30
0.0
210
0.0
220
0.0
230
1.0
  2
SOLID
 70
     1
 71
     0
 91
       18
 92
        1
 93
        1
 72
     4
 94
        3
 73
     0
 74
     1
 95
       26
 96
       22
 40
0.0
 40
0.0
 40
0.0
 40
0.0
 40
1.0
 40
1.0
 40
1.0
 40
2.0
 40
2.0
 40
2.0
 40
3.0
 40
3.0
 40
3.0
 40
4.0
 40
4.0
 40
4.0
 40
5.0
 40
5.0
 40
5.0
 40
6.0
 40
6.0
 40
6.0
 40
7.0
 40
7.0
 40
7.0
 40
7.0
 10
0.4665824042426215
 20
-4.371442159016927
 10
0.8104036119249132
 20
-4.272361755371094
 10
1.145335727267795
 20
-4.14320543077257
 10
1.465005662706163
 20
-3.987568325466579
 10
1.439025031195746
 20
-4.05539788140191
 10
1.416541205512153
 20
-4.124277750651041
 10
1.40041012234158
 20
-4.194229125976562
 10
1.092135111490885
 20
-4.325973510742188
 10
0.7995393541124132
 20
-4.497584872775607
 10
0.5334430270724826
 20
-4.701108296712239
 10
0.539872063530816
 20
-4.674243503146701
 10
0.5455381605360243
 20
-4.64551035563151
 10
0.5440851847330729
 20
-4.628391689724392
 10
0.5042716132269965
 20
-4.618842230902778
 10
0.4694586859809027
 20
-4.611875745985243
 10
0.4449149237738715
 20
-4.568275451660156
 10
0.4128485785590277
 20
-4.511311001247829
 10
0.4340786404079861
 20
-4.447063869900173
 10
0.4576492309570312
 20
-4.39121839735243
 10
0.4604593912760416
 20
-4.38456047905816
 10
0.4636247422960069
 20
-4.378043280707465
 10
0.4665824042426215
 20
-4.371442159016927
 97
        0
 97
        0
 92
        1
 93
        1
 72
     4
 94
        3
 73
     0
 74
     1
 95
       20
 96
       16
 40
0.0
 40
0.0
 40
0.0
 40
0.0
 40
1.0
 40
1.0
 40
1.0
 40
2.0
 40
2.0
 40
2.0
 40
3.0
 40
3.0
 40
3.0
 40
4.0
 40
4.0
 40
4.0
 40
5.0
 40
5.0
 40
5.0
 40
5.0
 10
4.033354865180121
 20
-1.496161566840278
 10
3.926415337456597
 20
-1.456027560763889
 10
3.75425550672743
 20
-1.492875840928819
 10
3.679551018608941
 20
-1.582887437608507
 10
3.653246561686198
 20
-1.614581637912326
 10
3.708777533637153
 20
-1.637469821506076
 10
3.733107672797309
 20
-1.625733269585503
 10
3.785895453559028
 20
-1.600269741482205
 10
3.828951517740885
 20
-1.57177480061849
 10
3.888281928168403
 20
-1.561663309733073
 10
3.938765631781684
 20
-1.55305904812283
 10
3.985237969292534
 20
-1.554313659667969
 10
4.033354865180121
 20
-1.535287645128038
 10
4.051156785753038
 20
-1.528248257107205
 10
4.051653544108072
 20
-1.503028869628906
 10
4.033354865180121
 20
-1.496161566840278
 97
        0
 97
        0
 92
        1
 93
        1
 72
     4
 94
        3
 73
     0
 74
     1
 95
       23
 96
       19
 40
0.0
 40
0.0
 40
0.0
 40
0.0
 40
1.0
 40
1.0
 40
1.0
 40
2.0
 40
2.0
 40
2.0
 40
3.0
 40
3.0
 40
3.0
 40
4.0
 40
4.0
 40
4.0
 40
5.0
 40
5.0
 40
5.0
 40
6.0
 40
6.0
 40
6.0
 40
6.0
 10
4.029184129503038
 20
-1.607919481065538
 10
4.000291612413195
 20
-1.567597283257378
 10
3.936426798502604
 20
-1.573685540093316
 10
3.893288506401909
 20
-1.580997043185764
 10
3.846480475531684
 20
-1.58893076578776
 10
3.796041700575087
 20
-1.608670552571615
 10
3.765138414171007
 20
-1.645928276909722
 10
3.733680725097656
 20
-1.683854844835069
 10
3.799375745985243
 20
-1.702879163953993
 10
3.825263977050781
 20
-1.69402821858724
 10
3.857560899522569
 20
-1.682986789279514
 10
3.886876424153646
 20
-1.66680908203125
 10
3.921476576063368
 20
-1.662793477376302
 10
3.95294443766276
 20
-1.65914069281684
 10
3.986119588216146
 20
-1.667170206705729
 10
4.014995998806423
 20
-1.651210361056858
 10
4.030820210774739
 20
-1.642463684082031
 10
4.041295369466146
 20
-1.624820285373264
 10
4.029184129503038
 20
-1.607919481065538
 97
        0
 97
        0
 92
        1
 93
        1
 72
     4
 94
        3
 73
     0
 74
     1
 95
      170
 96
      166
 40
0.0
 40
0.0
 40
0.0
 40
0.0
 40
1.0
 40
1.0
 40
1.0
 40
2.0
 40
2.0
 40
2.0
 40
3.0
 40
3.0
 40
3.0
 40
4.0
 40
4.0
 40
4.0
 40
5.0
 40
5.0
 40
5.0
 40
6.0
 40
6.0
 40
6.0
 40
7.0
 40
7.0
 40
7.0
 40
8.0
 40
8.0
 40
8.0
 40
9.0
 40
9.0
 40
9.0
 40
10.0
 40
10.0
 40
10.0
 40
11.0
 40
11.0
 40
11.0
 40
12.0
 40
12.0
 40
12.0
 40
13.0
 40
13.0
 40
13.0
 40
14.0
 40
14.0
 40
14.0
 40
15.0
 40
15.0
 40
15.0
 40
16.0
 40
16.0
 40
16.0
 40
17.0
 40
17.0
 40
17.0
 40
18.0
 40
18.0
 40
18.0
 40
19.0
 40
19.0
 40
19.0
 40
20.0
 40
20.0
 40
20.0
 40
21.0
 40
21.0
 40
21.0
 40
22.0
 40
22.0
 40
22.0
 40
23.0
 40
23.0
 40
23.0
 40
24.0
 40
24.0
 40
24.0
 40
25.0
 40
25.0
 40
25.0
 40
26.0
 40
26.0
 40
26.0
 40
27.0
 40
27.0
 40
27.0
 40
28.0
 40
28.0
 40
28.0
 40
29.0
 40
29.0
 40
29.0
 40
30.0
 40
30.0
 40
30.0
 40
31.0
 40
31.0
 40
31.0
 40
32.0
 40
32.0
 40
32.0
 40
33.0
 40
33.0
 40
33.0
 40
34.0
 40
34.0
 40
34.0
 40
35.0
 40
35.0
 40
35.0
 40
36.0
 40
36.0
 40
36.0
 40
37.0
 40
37.0
 40
37.0
 40
38.0
 40
38.0
 40
38.0
 40
39.0
 40
39.0
 40
39.0
 40
40.0
 40
40.0
 40
40.0
 40
41.0
 40
41.0
 40
41.0
 40
42.0
 40
42.0
 40
42.0
 40
43.0
 40
43.0
 40
43.0
 40
44.0
 40
44.0
 40
44.0
 40
45.0
 40
45.0
 40
45.0
 40
46.0
 40
46.0
 40
46.0
 40
47.0
 40
47.0
 40
47.0
 40
48.0
 40
48.0
 40
48.0
 40
49.0
 40
49.0
 40
49.0
 40
50.0
 40
50.0
 40
50.0
 40
51.0
 40
51.0
 40
51.0
 40
52.0
 40
52.0
 40
52.0
 40
53.0
 40
53.0
 40
53.0
 40
54.0
 40
54.0
 40
54.0
 40
55.0
 40
55.0
 40
55.0
 40
55.0
 10
4.548042297363281
 20
-2.918807135687934
 10
4.526460435655381
 20
-2.726632859971788
 10
4.356583489312066
 20
-2.650790744357639
 10
4.197722540961371
 20
-2.590220981174045
 10
4.184040493435329
 20
-2.585004170735677
 10
4.179027981228298
 20
-2.575113084581163
 10
4.179789225260416
 20
-2.565066867404514
 10
4.176989237467447
 20
-2.553097195095486
 10
4.181614345974392
 20
-2.540154351128472
 10
4.197629292805989
 20
-2.533057318793403
 10
4.36051771375868
 20
-2.460873921712239
 10
4.570718553331163
 20
-2.492182413736979
 10
4.72965579562717
 20
-2.570009019639757
 10
4.722279018825954
 20
-2.498652988009983
 10
4.704554239908854
 20
-2.428677029079861
 10
4.675171746148004
 20
-2.363128662109375
 10
4.660341050889756
 20
-2.330043368869358
 10
4.642819722493489
 20
-2.299999660915799
 10
4.620876736111111
 20
-2.271332634819878
 10
4.610459221733941
 20
-2.257723490397135
 10
4.599218580457899
 20
-2.246251424153646
 10
4.590446472167969
 20
-2.233163621690538
 10
4.586247762044271
 20
-2.231477525499132
 10
4.582054985894097
 20
-2.22979736328125
 10
4.577806260850694
 20
-2.228075663248698
 10
4.552767435709635
 20
-2.217930263943142
 10
4.559887356228298
 20
-2.182390848795573
 10
4.58573744032118
 20
-2.179525587293837
 10
4.697081671820746
 20
-2.167183770073785
 10
4.811588711208767
 20
-2.228263854980469
 10
4.885215759277344
 20
-2.309137980143229
 10
4.897448221842447
 20
-2.322574191623264
 10
4.909617953830295
 20
-2.338196648491753
 10
4.921385023328993
 20
-2.355162726508246
 10
4.919107225206163
 20
-2.345820109049479
 10
4.917132059733072
 20
-2.336302863226996
 10
4.915723164876302
 20
-2.326462639702691
 10
4.902480231391059
 20
-2.233985900878906
 10
4.923334757486979
 20
-2.147612677680121
 10
4.870440165201822
 20
-2.064131842719184
 10
4.834660847981771
 20
-2.007663302951389
 10
4.785543653700087
 20
-1.961180792914496
 10
4.743446350097656
 20
-1.909655253092448
 10
4.646049499511719
 20
-1.790445115831163
 10
4.632497999403212
 20
-1.661167568630642
 10
4.635058932834201
 20
-1.511758592393663
 10
4.637992858886719
 20
-1.340548197428385
 10
4.632169087727864
 20
-1.169280158148871
 10
4.604556613498263
 20
-0.9999906751844617
 10
4.588588290744357
 20
-0.9020928276909722
 10
4.565480550130208
 20
-0.8050715128580729
 10
4.534459431966146
 20
-0.7108323838975694
 10
4.512163798014322
 20
-0.6430977715386285
 10
4.487252129448785
 20
-0.5716306898328992
 10
4.439456515842013
 20
-0.5171127319335938
 10
4.319196065266927
 20
-0.3799370659722222
 10
4.124248928493923
 20
-0.5409486558702257
 10
4.017929077148438
 20
-0.6267344156901041
 10
3.906725565592448
 20
-0.7164603339301215
 10
3.810022989908854
 20
-0.8226682874891492
 10
3.731742858886719
 20
-0.9422395494249132
 10
3.672378540039062
 20
-1.032918294270833
 10
3.633446587456597
 20
-1.132278442382812
 10
3.587745666503906
 20
-1.228601243760851
 10
3.585714552137587
 20
-1.309568617078993
 10
3.57242923312717
 20
-1.397106594509548
 10
3.551873948838975
 20
-1.470467461480035
 10
3.535676744249132
 20
-1.528276231553819
 10
3.495866563585069
 20
-1.572102864583333
 10
3.438855489095052
 20
-1.579514397515191
 10
3.437896728515625
 20
-1.589241027832031
 10
3.436530219184028
 20
-1.598815070258246
 10
3.434781392415364
 20
-1.608197530110677
 10
3.441010369194878
 20
-1.601952446831597
 10
3.447203742133246
 20
-1.596076117621528
 10
3.453407287597656
 20
-1.591321309407552
 10
3.466383192274305
 20
-1.581375122070312
 10
3.504036797417534
 20
-1.583434210883246
 10
3.500919765896267
 20
-1.607064988878038
 10
3.490925259060329
 20
-1.68281979031033
 10
3.428008185492621
 20
-1.747327168782552
 10
3.34780036078559
 20
-1.745785183376736
 10
3.284472995334201
 20
-1.74456787109375
 10
3.200258043077257
 20
-1.681272718641493
 10
3.207273695203993
 20
-1.61226314968533
 10
3.209476047092014
 20
-1.590603298611111
 10
3.239222208658854
 20
-1.583317226833767
 10
3.254786173502604
 20
-1.59651862250434
 10
3.286859300401475
 20
-1.623723347981771
 10
3.311348809136284
 20
-1.686411539713542
 10
3.361902872721354
 20
-1.669126722547743
 10
3.362768385145399
 20
-1.668830871582031
 10
3.36358896891276
 20
-1.668290879991319
 10
3.364447699652778
 20
-1.667954338921441
 10
3.363661024305555
 20
-1.663468254937066
 10
3.363051520453559
 20
-1.659048292371962
 10
3.362542046440972
 20
-1.654662238226996
 10
3.332324557834201
 20
-1.631116231282552
 10
3.322559780544704
 20
-1.57837168375651
 10
3.316802978515625
 20
-1.540796915690104
 10
3.241203308105469
 20
-1.466818067762587
 10
3.260431925455729
 20
-1.308007982042101
 10
3.281321207682292
 20
-1.213177151150173
 10
3.321885850694444
 20
-1.029024759928385
 10
3.425793117947048
 20
-0.86297607421875
 10
3.556502448187934
 20
-0.7293006049262153
 10
3.623719957139757
 20
-0.6605572170681423
 10
3.698282877604167
 20
-0.5997051662868923
 10
3.7776124742296
 20
-0.54547119140625
 10
3.852999369303385
 20
-0.4939320882161458
 10
3.937687344021267
 20
-0.4369227091471354
 10
4.026822408040364
 20
-0.4142176310221354
 10
4.05523681640625
 20
-0.4069798787434896
 10
4.088651021321614
 20
-0.437666998969184
 10
4.061503092447916
 20
-0.4618784586588541
 10
4.027157253689236
 20
-0.492508782280816
 10
3.985367668999566
 20
-0.5171381632486979
 10
3.943918016221788
 20
-0.5412216186523438
 10
3.951910230848524
 20
-0.54644775390625
 10
3.958861456976996
 20
-0.553725348578559
 10
3.964085896809896
 20
-0.5617735120985242
 10
3.997611151801215
 20
-0.5352842542860243
 10
4.032349480523004
 20
-0.5103268093532985
 10
4.068324618869357
 20
-0.4872300889756944
 10
4.189808315700954
 20
-0.4092364841037326
 10
4.342530144585504
 20
-0.3303146362304688
 10
4.47510019938151
 20
-0.4313854641384549
 10
4.594649420844184
 20
-0.5225287543402778
 10
4.637102762858072
 20
-0.7009065416124132
 10
4.670127868652344
 20
-0.8384433322482638
 10
4.715071784125434
 20
-1.025616115993924
 10
4.73332044813368
 20
-1.218555026584201
 10
4.734389411078559
 20
-1.410780164930556
 10
4.734942966037326
 20
-1.510305616590712
 10
4.722062004937066
 20
-1.615431043836805
 10
4.745436774359809
 20
-1.713323805067274
 10
4.764765421549479
 20
-1.794270833333333
 10
4.815066867404513
 20
-1.854644775390625
 10
4.868648952907986
 20
-1.91546885172526
 10
4.918563842773438
 20
-1.972130669487847
 10
4.971100701226129
 20
-2.030172559950087
 10
4.995763142903646
 20
-2.103112114800347
 10
5.023607889811197
 20
-2.185461256239149
 10
5.005633036295572
 20
-2.277098761664496
 10
5.035406324598524
 20
-2.357937282986111
 10
5.094522264268663
 20
-2.518443637424045
 10
5.286263359917535
 20
-2.579181247287326
 10
5.390719095865885
 20
-2.703937106662326
 10
5.438968234592013
 20
-2.761563618977864
 10
5.473924424913194
 20
-2.838431464301215
 10
5.470249599880642
 20
-2.914785597059462
 10
5.468715243869357
 20
-2.946663750542534
 10
5.459531995985243
 20
-2.974675496419271
 10
5.44747077094184
 20
-3.003907945421007
 10
5.442354838053385
 20
-3.016307406955295
 10
5.430751376681857
 20
-3.03426530626085
 10
5.428703308105469
 20
-3.051122877332899
 10
5.319557189941406
 20
-3.032257927788628
 10
5.210094028049045
 20
-3.01871829562717
 10
5.101858350965712
 20
-3.009974161783854
 10
4.916172451443142
 20
-2.994972229003906
 10
4.728394402398004
 20
-2.995699564615885
 10
4.542302449544271
 20
-3.013356526692708
 10
4.549706353081597
 20
-2.982371860080295
 10
4.551622178819444
 20
-2.950681050618489
 10
4.548042297363281
 20
-2.918807135687934
 97
        0
 97
        0
 92
        1
 93
        1
 72
     4
 94
        3
 73
     0
 74
     1
 95
       14
 96
       10
 40
0.0
 40
0.0
 40
0.0
 40
0.0
 40
1.0
 40
1.0
 40
1.0
 40
2.0
 40
2.0
 40
2.0
 40
3.0
 40
3.0
 40
3.0
 40
3.0
 10
3.903929816351996
 20
-0.585355970594618
 10
3.903749254014757
 20
-0.5851593017578125
 10
3.903597513834635
 20
-0.584975348578559
 10
3.903366936577691
 20
-0.5847083197699653
 10
3.903157552083333
 20
-0.584808349609375
 10
3.902745564778646
 20
-0.584896511501736
 10
3.902425130208333
 20
-0.584989759657118
 10
3.902929517957899
 20
-0.5851008097330729
 10
3.903426276312934
 20
-0.5852296617296007
 10
3.903929816351996
 20
-0.585355970594618
 97
        0
 97
        0
 92
        1
 93
        1
 72
     4
 94
        3
 73
     0
 74
     1
 95
       38
 96
       34
 40
0.0
 40
0.0
 40
0.0
 40
0.0
 40
1.0
 40
1.0
 40
1.0
 40
2.0
 40
2.0
 40
2.0
 40
3.0
 40
3.0
 40
3.0
 40
4.0
 40
4.0
 40
4.0
 40
5.0
 40
5.0
 40
5.0
 40
6.0
 40
6.0
 40
6.0
 40
7.0
 40
7.0
 40
7.0
 40
8.0
 40
8.0
 40
8.0
 40
9.0
 40
9.0
 40
9.0
 40
10.0
 40
10.0
 40
10.0
 40
11.0
 40
11.0
 40
11.0
 40
11.0
 10
3.85856204562717
 20
-2.217411465115017
 10
3.838607788085938
 20
-2.216723971896701
 10
3.820588005913628
 20
-2.217330932617188
 10
3.803910149468316
 20
-2.218805948893229
 10
3.812548319498698
 20
-2.153180440266927
 10
3.755368550618489
 20
-2.086987813313802
 10
3.680107116699219
 20
-2.082934909396701
 10
3.654239230685764
 20
-2.081542121039496
 10
3.654535929361979
 20
-2.110724555121528
 10
3.680107116699219
 20
-2.112101236979167
 10
3.752952575683594
 20
-2.116024441189236
 10
3.787621392144097
 20
-2.20402357313368
 10
3.742548624674479
 20
-2.259416368272569
 10
3.689058939615885
 20
-2.32515377468533
 10
3.601112365722656
 20
-2.275484720865885
 10
3.597119649251302
 20
-2.201338873969184
 10
3.596061706542969
 20
-2.181685553656684
 10
3.554407755533854
 20
-2.181920369466146
 10
3.555452982584635
 20
-2.201338873969184
 10
3.558333502875434
 20
-2.254830254448784
 10
3.593300713433159
 20
-2.294503953721788
 10
3.637161254882812
 20
-2.31101820203993
 10
3.622060987684462
 20
-2.335801018608941
 10
3.612763298882378
 20
-2.361729939778646
 10
3.603953043619792
 20
-2.383756001790364
 10
3.576794942220052
 20
-2.451651679144965
 10
3.6107423570421
 20
-2.512758043077257
 10
3.851772732204861
 20
-2.516152275933159
 10
4.018964131673177
 20
-2.518507215711805
 10
4.072433471679688
 20
-2.427887810601128
 10
4.072433471679688
 20
-2.376966688368055
 10
4.072433471679688
 20
-2.326044718424479
 10
4.011575486924913
 20
-2.222687615288628
 10
3.85856204562717
 20
-2.217411465115017
 97
        0
 97
        0
 92
        1
 93
        1
 72
     4
 94
        3
 73
     0
 74
     1
 95
       44
 96
       40
 40
0.0
 40
0.0
 40
0.0
 40
0.0
 40
1.0
 40
1.0
 40
1.0
 40
2.0
 40
2.0
 40
2.0
 40
3.0
 40
3.0
 40
3.0
 40
4.0
 40
4.0
 40
4.0
 40
5.0
 40
5.0
 40
5.0
 40
6.0
 40
6.0
 40
6.0
 40
7.0
 40
7.0
 40
7.0
 40
8.0
 40
8.0
 40
8.0
 40
9.0
 40
9.0
 40
9.0
 40
10.0
 40
10.0
 40
10.0
 40
11.0
 40
11.0
 40
11.0
 40
12.0
 40
12.0
 40
12.0
 40
13.0
 40
13.0
 40
13.0
 40
13.0
 10
5.608612060546875
 20
-3.378873189290364
 10
5.645579867892795
 20
-3.294917636447483
 10
5.649673461914062
 20
-3.205579969618055
 10
5.600103590223524
 20
-3.146658155653212
 10
5.434171888563368
 20
-3.104544745551215
 10
5.264769660101996
 20
-3.074563768174913
 10
5.090092976888021
 20
-3.060759650336371
 10
4.90149180094401
 20
-3.045854356553819
 10
4.713266160753038
 20
-3.047958374023438
 10
4.526449415418837
 20
-3.064996507432725
 10
4.521916707356771
 20
-3.080941094292534
 10
4.520068698459201
 20
-3.096989101833767
 10
4.527735392252604
 20
-3.114073011610243
 10
4.552130805121528
 20
-3.168434143066406
 10
4.646573384602864
 20
-3.171744452582465
 10
4.693433973524305
 20
-3.194264729817708
 10
4.819442749023438
 20
-3.254823472764757
 10
4.901039123535156
 20
-3.355158487955729
 10
4.943395826551649
 20
-3.471346537272135
 10
4.993661668565538
 20
-3.486022101508246
 10
5.043741861979166
 20
-3.501987881130642
 10
5.093583001030816
 20
-3.519541422526042
 10
5.272779676649305
 20
-3.582653469509548
 10
5.446244981553819
 20
-3.661632961697048
 10
5.612603081597222
 20
-3.753307766384548
 10
5.617295159233941
 20
-3.755893283420139
 10
5.622015211317274
 20
-3.758589850531684
 10
5.626714070638021
 20
-3.761195712619358
 10
5.627335442437066
 20
-3.756930033365885
 10
5.628023783365885
 20
-3.752635531955295
 10
5.628516303168403
 20
-3.748428344726562
 10
5.630375332302517
 20
-3.732552422417534
 10
5.631248474121094
 20
-3.715581258138021
 10
5.631117078993055
 20
-3.698007371690538
 10
5.651426527235243
 20
-3.697048611111111
 10
5.670900132921006
 20
-3.68762461344401
 10
5.677519056532118
 20
-3.667821248372396
 10
5.712337070041232
 20
-3.563648647732204
 10
5.684460110134548
 20
-3.454460144042969
 10
5.608612060546875
 20
-3.378873189290364
 97
        0
 97
        0
 92
        1
 93
        1
 72
     4
 94
        3
 73
     0
 74
     1
 95
       23
 96
       19
 40
0.0
 40
0.0
 40
0.0
 40
0.0
 40
1.0
 40
1.0
 40
1.0
 40
2.0
 40
2.0
 40
2.0
 40
3.0
 40
3.0
 40
3.0
 40
4.0
 40
4.0
 40
4.0
 40
5.0
 40
5.0
 40
5.0
 40
6.0
 40
6.0
 40
6.0
 40
6.0
 10
3.989719814724392
 20
-1.751939561631944
 10
4.018488566080729
 20
-1.755591498480903
 10
4.044468349880642
 20
-1.756857130262587
 10
4.073265075683594
 20
-1.752098931206597
 10
4.088934156629774
 20
-1.749510871039496
 10
4.10496351453993
 20
-1.735550774468316
 10
4.10496351453993
 20
-1.718793233235677
 10
4.10496351453993
 20
-1.702073838975694
 10
4.088963826497396
 20
-1.688079833984375
 10
4.073265075683594
 20
-1.685486687554253
 10
4.044518364800347
 20
-1.680736965603298
 10
4.018491109212239
 20
-1.681994120279948
 10
3.989719814724392
 20
-1.685646057128906
 10
3.974109225802951
 20
-1.687627156575521
 10
3.95817396375868
 20
-1.702529059516059
 10
3.95817396375868
 20
-1.718793233235677
 10
3.95817396375868
 20
-1.73502434624566
 10
3.974073621961805
 20
-1.749954223632812
 10
3.989719814724392
 20
-1.751939561631944
 97
        0
 97
        0
 92
        1
 93
        1
 72
     4
 94
        3
 73
     0
 74
     1
 95
       29
 96
       25
 40
0.0
 40
0.0
 40
0.0
 40
0.0
 40
1.0
 40
1.0
 40
1.0
 40
2.0
 40
2.0
 40
2.0
 40
3.0
 40
3.0
 40
3.0
 40
4.0
 40
4.0
 40
4.0
 40
5.0
 40
5.0
 40
5.0
 40
6.0
 40
6.0
 40
6.0
 40
7.0
 40
7.0
 40
7.0
 40
8.0
 40
8.0
 40
8.0
 40
8.0
 10
4.255752563476562
 20
-2.295491536458333
 10
4.303279452853732
 20
-2.268333435058594
 10
4.24896240234375
 20
-2.118962605794271
 10
4.09959242078993
 20
-2.020513746473524
 10
4.09959242078993
 20
-2.020513746473524
 10
4.12675052218967
 20
-1.891511705186632
 10
3.926457722981771
 20
-1.823616027832031
 10
3.726165771484375
 20
-1.75572035047743
 10
3.478346082899305
 20
-1.87793223063151
 10
3.407055324978298
 20
-2.057856241861979
 10
3.335764567057292
 20
-2.237780253092448
 10
3.407055324978298
 20
-2.346413506401909
 10
3.471555921766493
 20
-2.373571607801649
 10
3.471555921766493
 20
-2.373571607801649
 10
3.390081617567274
 20
-2.190252516004774
 10
3.559820387098524
 20
-2.057856241861979
 10
3.729560004340278
 20
-1.92545912000868
 10
4.052064683702257
 20
-2.000144958496094
 10
4.130144755045572
 20
-2.122356838650174
 10
4.208225674099392
 20
-2.244569566514757
 10
4.150513543023004
 20
-2.349807739257812
 10
4.109776814778646
 20
-2.400729709201389
 10
4.109776814778646
 20
-2.400729709201389
 10
4.208225674099392
 20
-2.322649637858073
 10
4.255752563476562
 20
-2.295491536458333
 97
        0
 97
        0
 92
        1
 93
        1
 72
     4
 94
        3
 73
     0
 74
     1
 95
       50
 96
       46
 40
0.0
 40
0.0
 40
0.0
 40
0.0
 40
1.0
 40
1.0
 40
1.0
 40
2.0
 40
2.0
 40
2.0
 40
3.0
 40
3.0
 40
3.0
 40
4.0
 40
4.0
 40
4.0
 40
5.0
 40
5.0
 40
5.0
 40
6.0
 40
6.0
 40
6.0
 40
7.0
 40
7.0
 40
7.0
 40
8.0
 40
8.0
 40
8.0
 40
9.0
 40
9.0
 40
9.0
 40
10.0
 40
10.0
 40
10.0
 40
11.0
 40
11.0
 40
11.0
 40
12.0
 40
12.0
 40
12.0
 40
13.0
 40
13.0
 40
13.0
 40
14.0
 40
14.0
 40
14.0
 40
15.0
 40
15.0
 40
15.0
 40
15.0
 10
0.514556884765625
 20
-4.78928460015191
 10
0.510510762532552
 20
-4.82405768500434
 10
0.5102835761176215
 20
-4.857899983723958
 10
0.5153800116644965
 20
-4.89382086859809
 10
0.5194066365559895
 20
-4.922203063964844
 10
0.5683102077907985
 20
-4.937199062771267
 10
0.5836215549045138
 20
-4.908607482910156
 10
0.5938449435763888
 20
-4.889517890082465
 10
0.602262708875868
 20
-4.870143466525607
 10
0.609389411078559
 20
-4.850501166449653
 10
0.64300537109375
 20
-4.875323825412326
 10
0.6913808186848958
 20
-4.882390340169271
 10
0.7270948621961805
 20
-4.859396192762587
 10
0.7384618123372395
 20
-4.852077907986111
 10
0.7487208048502604
 20
-4.843716091579861
 10
0.758421156141493
 20
-4.834827846950954
 10
0.7623214721679688
 20
-4.835602654351129
 10
0.766249762641059
 20
-4.836114671495225
 10
0.7701916164822048
 20
-4.836422390407986
 10
0.7664057413736979
 20
-4.840514289008246
 10
0.762497795952691
 20
-4.844496832953559
 10
0.7587500678168403
 20
-4.848621792263454
 10
0.7088436550564235
 20
-4.903556823730469
 10
0.6375986735026041
 20
-4.975118849012587
 10
0.6141094631618923
 20
-5.046276516384548
 10
0.5990091959635416
 20
-5.092020670572916
 10
0.665678236219618
 20
-5.100799560546875
 10
0.6924557156032985
 20
-5.082761976453993
 10
0.7484825981987847
 20
-5.045022752549913
 10
0.7897974650065104
 20
-4.980745951334635
 10
0.836147732204861
 20
-4.931763543023004
 10
0.8862821790907117
 20
-4.878781636555989
 10
0.9363377888997395
 20
-4.826218499077691
 10
0.9926223754882812
 20
-4.779608832465278
 10
1.095243665907118
 20
-4.694628397623697
 10
1.21213616265191
 20
-4.633143107096354
 10
1.343556722005208
 20
-4.607798258463541
 10
1.373225741916233
 20
-4.602076212565104
 10
1.390109592013889
 20
-4.578206380208333
 10
1.385156419542101
 20
-4.549185011121962
 10
1.368550618489583
 20
-4.451894972059462
 10
1.371361626519097
 20
-4.356540256076388
 10
1.386824713812934
 20
-4.263055589463976
 10
1.075540330674913
 20
-4.401074727376302
 10
0.7817111545138888
 20
-4.578091939290364
 10
0.514556884765625
 20
-4.78928460015191
 97
        0
 97
        0
 92
        1
 93
        1
 72
     4
 94
        3
 73
     0
 74
     1
 95
       38
 96
       34
 40
0.0
 40
0.0
 40
0.0
 40
0.0
 40
1.0
 40
1.0
 40
1.0
 40
2.0
 40
2.0
 40
2.0
 40
3.0
 40
3.0
 40
3.0
 40
4.0
 40
4.0
 40
4.0
 40
5.0
 40
5.0
 40
5.0
 40
6.0
 40
6.0
 40
6.0
 40
7.0
 40
7.0
 40
7.0
 40
8.0
 40
8.0
 40
8.0
 40
9.0
 40
9.0
 40
9.0
 40
10.0
 40
10.0
 40
10.0
 40
11.0
 40
11.0
 40
11.0
 40
11.0
 10
1.917003207736545
 20
-2.55934566921658
 10
1.912510342068142
 20
-2.501349555121528
 10
1.859714931911892
 20
-2.448287963867188
 10
1.79258049858941
 20
-2.444672478569878
 10
1.766711764865451
 20
-2.44327884250217
 10
1.76700931125217
 20
-2.472462124294705
 10
1.79258049858941
 20
-2.473838806152344
 10
1.865425957573785
 20
-2.477762010362413
 10
1.900093926323785
 20
-2.565761142306858
 10
1.85502200656467
 20
-2.621153089735243
 10
1.801532321506076
 20
-2.686891343858507
 10
1.713585747612847
 20
-2.637222290039062
 10
1.709593031141493
 20
-2.563076443142361
 10
1.708534240722656
 20
-2.543423122829861
 10
1.666880289713542
 20
-2.543657938639323
 10
1.667926364474826
 20
-2.563076443142361
 10
1.671029832628038
 20
-2.620695326063368
 10
1.711329989963108
 20
-2.662366231282552
 10
1.759917365180121
 20
-2.676211886935764
 10
1.723326789008246
 20
-2.764546712239583
 10
1.768987867567274
 20
-2.832121107313368
 10
1.768987867567274
 20
-2.832121107313368
 10
1.768987867567274
 20
-2.832121107313368
 10
1.895453559027778
 20
-2.87186770968967
 10
1.99662611219618
 20
-2.857414245605469
 10
2.097798665364583
 20
-2.842960781521267
 10
2.188131544325087
 20
-2.767081366644965
 10
2.188131544325087
 20
-2.767081366644965
 10
2.188131544325087
 20
-2.767081366644965
 10
2.217038472493489
 20
-2.691201951768663
 10
2.144771999782986
 20
-2.615322536892361
 10
2.10044691297743
 20
-2.568781534830729
 10
2.003155178493924
 20
-2.545487297905816
 10
1.917003207736545
 20
-2.55934566921658
 97
        0
 97
        0
 92
        1
 93
        1
 72
     4
 94
        3
 73
     0
 74
     1
 95
       11
 96
        7
 40
0.0
 40
0.0
 40
0.0
 40
0.0
 40
1.0
 40
1.0
 40
1.0
 40
2.0
 40
2.0
 40
2.0
 40
2.0
 10
2.654763963487413
 20
-4.019494798448351
 10
2.654311286078559
 20
-4.019679599338107
 10
2.653867085774739
 20
-4.019855923122829
 10
2.653412712944878
 20
-4.020043267144097
 10
2.629881964789496
 20
-4.029732598198785
 10
2.635708279079861
 20
-4.032073126898871
 10
2.654763963487413
 20
-4.019494798448351
 97
        0
 97
        0
 92
        1
 93
        1
 72
     4
 94
        3
 73
     0
 74
     1
 95
      233
 96
      229
 40
0.0
 40
0.0
 40
0.0
 40
0.0
 40
1.0
 40
1.0
 40
1.0
 40
2.0
 40
2.0
 40
2.0
 40
3.0
 40
3.0
 40
3.0
 40
4.0
 40
4.0
 40
4.0
 40
5.0
 40
5.0
 40
5.0
 40
6.0
 40
6.0
 40
6.0
 40
7.0
 40
7.0
 40
7.0
 40
8.0
 40
8.0
 40
8.0
 40
9.0
 40
9.0
 40
9.0
 40
10.0
 40
10.0
 40
10.0
 40
11.0
 40
11.0
 40
11.0
 40
12.0
 40
12.0
 40
12.0
 40
13.0
 40
13.0
 40
13.0
 40
14.0
 40
14.0
 40
14.0
 40
15.0
 40
15.0
 40
15.0
 40
16.0
 40
16.0
 40
16.0
 40
17.0
 40
17.0
 40
17.0
 40
18.0
 40
18.0
 40
18.0
 40
19.0
 40
19.0
 40
19.0
 40
20.0
 40
20.0
 40
20.0
 40
21.0
 40
21.0
 40
21.0
 40
22.0
 40
22.0
 40
22.0
 40
23.0
 40
23.0
 40
23.0
 40
24.0
 40
24.0
 40
24.0
 40
25.0
 40
25.0
 40
25.0
 40
26.0
 40
26.0
 40
26.0
 40
27.0
 40
27.0
 40
27.0
 40
28.0
 40
28.0
 40
28.0
 40
29.0
 40
29.0
 40
29.0
 40
30.0
 40
30.0
 40
30.0
 40
31.0
 40
31.0
 40
31.0
 40
32.0
 40
32.0
 40
32.0
 40
33.0
 40
33.0
 40
33.0
 40
34.0
 40
34.0
 40
34.0
 40
35.0
 40
35.0
 40
35.0
 40
36.0
 40
36.0
 40
36.0
 40
37.0
 40
37.0
 40
37.0
 40
38.0
 40
38.0
 40
38.0
 40
39.0
 40
39.0
 40
39.0
 40
40.0
 40
40.0
 40
40.0
 40
41.0
 40
41.0
 40
41.0
 40
42.0
 40
42.0
 40
42.0
 40
43.0
 40
43.0
 40
43.0
 40
44.0
 40
44.0
 40
44.0
 40
45.0
 40
45.0
 40
45.0
 40
46.0
 40
46.0
 40
46.0
 40
47.0
 40
47.0
 40
47.0
 40
48.0
 40
48.0
 40
48.0
 40
49.0
 40
49.0
 40
49.0
 40
50.0
 40
50.0
 40
50.0
 40
51.0
 40
51.0
 40
51.0
 40
52.0
 40
52.0
 40
52.0
 40
53.0
 40
53.0
 40
53.0
 40
54.0
 40
54.0
 40
54.0
 40
55.0
 40
55.0
 40
55.0
 40
56.0
 40
56.0
 40
56.0
 40
57.0
 40
57.0
 40
57.0
 40
58.0
 40
58.0
 40
58.0
 40
59.0
 40
59.0
 40
59.0
 40
60.0
 40
60.0
 40
60.0
 40
61.0
 40
61.0
 40
61.0
 40
62.0
 40
62.0
 40
62.0
 40
63.0
 40
63.0
 40
63.0
 40
64.0
 40
64.0
 40
64.0
 40
65.0
 40
65.0
 40
65.0
 40
66.0
 40
66.0
 40
66.0
 40
67.0
 40
67.0
 40
67.0
 40
68.0
 40
68.0
 40
68.0
 40
69.0
 40
69.0
 40
69.0
 40
70.0
 40
70.0
 40
70.0
 40
71.0
 40
71.0
 40
71.0
 40
72.0
 40
72.0
 40
72.0
 40
73.0
 40
73.0
 40
73.0
 40
74.0
 40
74.0
 40
74.0
 40
75.0
 40
75.0
 40
75.0
 40
76.0
 40
76.0
 40
76.0
 40
76.0
 10
1.67494879828559
 20
-3.025341457790799
 10
1.578726874457465
 20
-3.045375400119358
 10
1.504055447048611
 20
-3.10874769422743
 10
1.405695597330729
 20
-3.048728942871094
 10
1.330314636230469
 20
-3.002731323242188
 10
1.311165703667535
 20
-2.928587171766493
 10
1.268299526638455
 20
-2.858295016818576
 10
1.262548658582899
 20
-2.848865085177951
 10
1.251116434733073
 20
-2.845438639322917
 10
1.240183512369792
 20
-2.846752590603299
 10
1.236362881130642
 20
-2.845642937554253
 10
1.232048034667969
 20
-2.845801459418403
 10
1.228646172417535
 20
-2.847489251030816
 10
1.168990241156684
 20
-2.877086215549045
 10
1.141879611545139
 20
-2.954627990722656
 10
1.122774759928385
 20
-3.014911227756076
 10
1.117507934570312
 20
-3.031529744466146
 10
1.113118489583333
 20
-3.048416137695312
 10
1.109441121419271
 20
-3.0654542711046
 10
1.093062506781684
 20
-3.028396606445312
 10
1.08534664577908
 20
-2.988522847493489
 10
1.094208611382378
 20
-2.943795098198784
 10
1.110067579481337
 20
-2.863755120171441
 10
1.165937635633681
 20
-2.807481553819444
 10
1.237827724880642
 20
-2.774058024088542
 10
1.255871242947048
 20
-2.76566908094618
 10
1.272789001464844
 20
-2.738409254286024
 10
1.255413479275173
 20
-2.720403883192274
 10
1.22743903266059
 20
-2.691414727105034
 10
1.229916042751736
 20
-2.651414659288194
 10
1.200169881184896
 20
-2.626815795898438
 10
1.194867451985677
 20
-2.622430589463975
 10
1.186178419325087
 20
-2.621777004665799
 10
1.18005116780599
 20
-2.62473890516493
 10
1.143360561794705
 20
-2.64247555202908
 10
1.141644795735677
 20
-2.680764092339409
 10
1.151930067274306
 20
-2.716153462727864
 10
1.069498697916667
 20
-2.748713175455729
 10
1.006870693630642
 20
-2.823643154568142
 10
0.9828559027777777
 20
-2.909945170084635
 10
0.9563734266493055
 20
-3.005114237467448
 10
0.9859712388780382
 20
-3.086862352159288
 10
1.03511471218533
 20
-3.162434895833333
 10
0.8928638034396701
 20
-3.178954230414496
 10
0.7522498236762153
 20
-3.226449754503038
 10
0.6492326524522569
 20
-3.329282972547743
 10
0.6414388020833333
 20
-3.337063259548611
 10
0.6339755588107638
 20
-3.345220777723524
 10
0.6267022026909722
 20
-3.353568183051215
 10
0.5967458089192708
 20
-3.268765767415364
 10
0.5393083360460069
 20
-3.189795600043403
 10
0.540390862358941
 20
-3.098821851942274
 10
0.5410241021050347
 20
-3.045555114746094
 10
0.579636467827691
 20
-3.014560275607639
 10
0.5877702501085069
 20
-2.965549045138889
 10
0.5943484836154513
 20
-2.925913492838542
 10
0.5766838921440972
 20
-2.891036987304688
 10
0.5521952311197916
 20
-2.860893249511719
 10
0.4929470486111111
 20
-2.787962171766493
 10
0.4230397542317708
 20
-2.732432895236545
 10
0.376969231499566
 20
-2.647940741644965
 10
0.328537835015191
 20
-2.559117635091146
 10
0.3002251519097222
 20
-2.457961188422309
 10
0.2969301011827257
 20
-2.356832716200087
 10
0.2934926350911458
 20
-2.251343621148003
 10
0.3014763726128472
 20
-2.159255981445312
 10
0.2638685438368055
 20
-2.058164808485243
 10
0.2264921400282118
 20
-1.957695007324219
 10
0.1820941501193576
 20
-1.864234076605903
 10
0.1629536946614583
 20
-1.757727728949653
 10
0.1332812839084201
 20
-1.592613220214844
 10
0.1330905490451389
 20
-1.339406331380208
 10
0.2441948784722222
 20
-1.190008375379774
 10
0.3019849989149305
 20
-1.16589101155599
 10
0.3778873019748264
 20
-1.162972344292535
 10
0.4269578721788194
 20
-1.162389967176649
 10
0.5156572129991319
 20
-1.161337110731337
 10
0.6033113267686632
 20
-1.172867668999566
 10
0.6891386244032117
 20
-1.195198906792535
 10
0.8560858832465277
 20
-1.238636440700955
 10
1.014047410753038
 20
-1.320202297634548
 10
1.158532884385851
 20
-1.413240220811632
 10
1.287309434678819
 20
-1.496163262261285
 10
1.407776726616753
 20
-1.591851128472222
 10
1.517283969455295
 20
-1.698950025770399
 10
1.58481682671441
 20
-1.76499769422743
 10
1.642507765028212
 20
-1.839641994900173
 10
1.701850043402778
 20
-1.91259765625
 10
1.609775119357639
 20
-1.882571750217014
 10
1.491073608398438
 20
-1.887340969509548
 10
1.423970540364583
 20
-1.935329013400608
 10
1.402765909830729
 20
-1.950493706597222
 10
1.416826036241319
 20
-1.98156483968099
 10
1.440130445692274
 20
-1.984295315212673
 10
1.442365010579427
 20
-1.984557257758246
 10
1.444595336914062
 20
-1.984608968098958
 10
1.446828206380208
 20
-1.984810723198785
 10
1.384160359700521
 20
-2.000933329264323
 10
1.324573940700955
 20
-2.028060913085938
 10
1.278775533040365
 20
-2.058695475260417
 10
1.246795654296875
 20
-2.080085754394531
 10
1.289288838704427
 20
-2.10652838812934
 10
1.311554802788628
 20
-2.103744506835938
 10
1.370386759440104
 20
-2.096388922797309
 10
1.427688598632812
 20
-2.077485826280382
 10
1.485926310221354
 20
-2.066212124294705
 10
1.547913445366753
 20
-2.054211934407552
 10
1.605138142903646
 20
-2.060339185926649
 10
1.66748046875
 20
-2.062708536783854
 10
1.706727769639757
 20
-2.064199659559462
 10
1.727344936794705
 20
-2.01784430609809
 10
1.68941413031684
 20
-1.997923956976996
 10
1.688417222764757
 20
-1.997400071885851
 10
1.68733893500434
 20
-1.997037251790365
 10
1.686334398057726
 20
-1.996529473198785
 10
1.713838365342882
 20
-2.001647101508246
 10
1.741384718153212
 20
-2.006612989637587
 10
1.769817776150173
 20
-2.008787367078993
 10
1.77439456515842
 20
-2.009137471516927
 10
1.778668721516927
 20
-2.008507622612847
 10
1.782542758517795
 20
-2.007202996148004
 10
1.799317253960503
 20
-2.02565680609809
 10
1.816410488552517
 20
-2.043814765082465
 10
1.834363301595052
 20
-2.0611818101671
 10
1.84368896484375
 20
-2.070203993055555
 10
1.863205803765191
 20
-2.068912929958767
 10
1.87390391031901
 20
-2.060540093315972
 10
1.892656962076823
 20
-2.060945298936632
 10
1.912489149305555
 20
-2.055528428819444
 10
1.927747938368055
 20
-2.048393249511719
 10
1.967444525824653
 20
-2.029831780327691
 10
2.003280639648438
 20
-1.994371202256944
 10
2.024492899576823
 20
-1.956335279676649
 10
2.054108513726129
 20
-1.903228759765625
 10
2.051873101128472
 20
-1.796393500434028
 10
1.986687554253472
 20
-1.778871324327257
 10
1.997354295518663
 20
-1.778589884440104
 10
2.00802018907335
 20
-1.779103597005208
 10
2.018694559733073
 20
-1.781645880805121
 10
2.051905314127604
 20
-1.789555867513021
 10
2.074346754286024
 20
-1.816582573784722
 10
2.108183119032118
 20
-1.821409437391493
 10
2.130646599663629
 20
-1.824613783094618
 10
2.167689005533854
 20
-1.812004937065972
 10
2.157435946994358
 20
-1.782007005479601
 10
2.14341057671441
 20
-1.740973578559028
 10
2.083155314127604
 20
-1.717396206325955
 10
2.043421427408854
 20
-1.709891425238715
 10
2.002232869466146
 20
-1.702111985948351
 10
1.950711568196615
 20
-1.704344855414496
 10
1.910455491807726
 20
-1.721473693847656
 10
1.820801628960503
 20
-1.636142306857639
 10
1.721092224121094
 20
-1.559427049424913
 10
1.621306525336371
 20
-1.488935682508681
 10
1.476812574598524
 20
-1.38686031765408
 10
1.323219299316406
 20
-1.297470940483941
 10
1.156612820095486
 20
-1.23677486843533
 10
0.9921018812391492
 20
-1.176843431260851
 10
0.8227445814344617
 20
-1.128695170084635
 10
0.6483654446072048
 20
-1.109215630425347
 10
0.549363030327691
 20
-1.098156399197049
 10
0.439817640516493
 20
-1.088534037272135
 10
0.3430557250976562
 20
-1.117411295572917
 10
0.2771267361111111
 20
-1.130611843532986
 10
0.2158016628689236
 20
-1.156326293945312
 10
0.1848678588867188
 20
-1.204098171657986
 10
0.0951122707790799
 20
-1.30391608344184
 10
0.0676964653862847
 20
-1.475130716959635
 10
0.0640199449327257
 20
-1.59733412000868
 10
0.0604892306857639
 20
-1.714708116319444
 10
0.0799221462673611
 20
-1.831321716308594
 10
0.1211166381835938
 20
-1.941270616319444
 10
0.1411616007486979
 20
-1.99477301703559
 10
0.1668879191080729
 20
-2.046078152126736
 10
0.1850628323025174
 20
-2.100299411349826
 10
0.2057698567708333
 20
-2.162075466579861
 10
0.2087037828233507
 20
-2.220372517903646
 10
0.2071126302083333
 20
-2.285057915581597
 10
0.2021119859483507
 20
-2.488371955023871
 10
0.2637032402886285
 20
-2.682934231228299
 10
0.4067145453559027
 20
-2.831631130642361
 10
0.4506852891710069
 20
-2.877350701226128
 10
0.5187098185221354
 20
-2.915952894422743
 10
0.4821955362955729
 20
-2.986329820421007
 10
0.4602762858072916
 20
-3.028576321072049
 10
0.4405932956271701
 20
-3.060439215766059
 10
0.439208984375
 20
-3.110085381401909
 10
0.4360749986436632
 20
-3.222416347927517
 10
0.5131234063042535
 20
-3.318379720052083
 10
0.5375374688042535
 20
-3.424581739637587
 10
0.5378740098741319
 20
-3.42604743109809
 10
0.5385199652777778
 20
-3.427257113986545
 10
0.5389887491861979
 20
-3.428615993923611
 10
0.392179701063368
 20
-3.599155002170139
 10
0.3842239379882812
 20
-3.866464402940538
 10
0.521134270562066
 20
-4.046179877387153
 10
0.5372687445746528
 20
-4.067359076605903
 10
0.5604739718967013
 20
-4.0845947265625
 10
0.5754648844401041
 20
-4.10611809624566
 10
0.6058434380425347
 20
-4.149735344780816
 10
0.5778045654296875
 20
-4.17734612358941
 10
0.552273220486111
 20
-4.215860154893663
 10
0.5354054768880208
 20
-4.241305881076388
 10
0.5196338229709201
 20
-4.267572191026476
 10
0.5048616197374132
 20
-4.294392055935329
 10
0.6554506089952257
 20
-4.248188442654079
 10
0.8042653401692708
 20
-4.196409437391493
 10
0.9507217407226562
 20
-4.139029608832465
 10
1.142919752332899
 20
-4.063728332519531
 10
1.327483283148871
 20
-3.976861741807725
 10
1.507952372233073
 20
-3.882642110188802
 10
1.533400641547309
 20
-3.823779635959201
 10
1.560420566134983
 20
-3.765725877549913
 10
1.587065802680121
 20
-3.708473205566406
 10
1.608390808105469
 20
-3.662651909722222
 10
1.633262634277344
 20
-3.618435329861111
 10
1.613273620605469
 20
-3.567693074544271
 10
1.593053181966146
 20
-3.516362508138021
 10
1.544035169813368
 20
-3.482296413845486
 10
1.523139953613281
 20
-3.429220411512587
 10
1.486996120876736
 20
-3.337413363986545
 10
1.498367309570312
 20
-3.240464952256944
 10
1.536524454752604
 20
-3.153577168782552
 10
1.603084140353733
 20
-3.148056030273438
 10
1.668650309244792
 20
-3.122973124186198
 10
1.714854770236545
 20
-3.08018324110243
 10
1.746070014105903
 20
-3.051275465223524
 10
1.707728915744358
 20
-3.018516540527344
 10
1.67494879828559
 20
-3.025341457790799
 97
        0
 97
        0
 92
        1
 93
        1
 72
     4
 94
        3
 73
     0
 74
     1
 95
       83
 96
       79
 40
0.0
 40
0.0
 40
0.0
 40
0.0
 40
1.0
 40
1.0
 40
1.0
 40
2.0
 40
2.0
 40
2.0
 40
3.0
 40
3.0
 40
3.0
 40
4.0
 40
4.0
 40
4.0
 40
5.0
 40
5.0
 40
5.0
 40
6.0
 40
6.0
 40
6.0
 40
7.0
 40
7.0
 40
7.0
 40
8.0
 40
8.0
 40
8.0
 40
9.0
 40
9.0
 40
9.0
 40
10.0
 40
10.0
 40
10.0
 40
11.0
 40
11.0
 40
11.0
 40
12.0
 40
12.0
 40
12.0
 40
13.0
 40
13.0
 40
13.0
 40
14.0
 40
14.0
 40
14.0
 40
15.0
 40
15.0
 40
15.0
 40
16.0
 40
16.0
 40
16.0
 40
17.0
 40
17.0
 40
17.0
 40
18.0
 40
18.0
 40
18.0
 40
19.0
 40
19.0
 40
19.0
 40
20.0
 40
20.0
 40
20.0
 40
21.0
 40
21.0
 40
21.0
 40
22.0
 40
22.0
 40
22.0
 40
23.0
 40
23.0
 40
23.0
 40
24.0
 40
24.0
 40
24.0
 40
25.0
 40
25.0
 40
25.0
 40
26.0
 40
26.0
 40
26.0
 40
26.0
 10
3.763508266872829
 20
-3.799382527669271
 10
3.658269246419271
 20
-3.738276163736979
 10
3.536057366265191
 20
-3.578720940483941
 10
3.410450405544704
 20
-3.408982170952691
 10
3.284842597113715
 20
-3.239242553710938
 10
3.132077534993489
 20
-3.24263678656684
 10
3.132077534993489
 20
-3.24263678656684
 10
3.132077534993489
 20
-3.24263678656684
 10
3.087944878472222
 20
-2.937106662326389
 10
3.087944878472222
 20
-2.937106662326389
 10
3.087944878472222
 20
-2.937106662326389
 10
3.129209730360243
 20
-2.909273783365885
 10
3.149542066786024
 20
-2.893298678927951
 10
3.252950880262587
 20
-2.812049018012153
 10
3.225050184461805
 20
-2.715882195366753
 10
3.20520273844401
 20
-2.673667907714844
 10
3.201334635416667
 20
-2.670642428927951
 10
3.197558085123698
 20
-2.667556762695312
 10
3.194041781955295
 20
-2.664321899414062
 10
3.156061808268229
 20
-2.629375881618924
 10
3.140484280056423
 20
-2.550470140245225
 10
3.193975660536024
 20
-2.521317376030816
 10
3.252437167697483
 20
-2.489455329047309
 10
3.304077996148003
 20
-2.539078606499566
 10
3.330719841851128
 20
-2.586449517144097
 10
3.3355712890625
 20
-2.59507581922743
 10
3.340131123860677
 20
-2.603844536675347
 10
3.344518025716146
 20
-2.612698872884114
 10
3.364416334364149
 20
-2.608021206325955
 10
3.386198255750868
 20
-2.603017171223958
 10
3.410450405544704
 20
-2.597627427842882
 10
3.56321546766493
 20
-2.563680013020833
 10
3.291632758246528
 20
-2.217411465115017
 10
2.918206108940972
 20
-2.312465243869358
 10
2.544779459635417
 20
-2.407519022623698
 10
2.54138437906901
 20
-2.767367045084635
 10
2.61606936984592
 20
-2.753787570529514
 10
2.63653818766276
 20
-2.750066121419271
 10
2.664415995279948
 20
-2.746090359157986
 10
2.694084167480469
 20
-2.742278205023871
 10
2.695038689507378
 20
-2.739613003200955
 10
2.696072048611111
 20
-2.737161424424913
 10
2.69696299235026
 20
-2.734310574001736
 10
2.707188076443142
 20
-2.701581319173177
 10
2.71342044406467
 20
-2.667642381456163
 10
2.73211669921875
 20
-2.638222588433159
 10
2.75616455078125
 20
-2.600382486979167
 10
2.808707343207465
 20
-2.568221198187934
 10
2.852288140190972
 20
-2.596051534016927
 10
2.891386244032118
 20
-2.621019151475694
 10
2.885143703884549
 20
-2.685448540581597
 10
2.868129306369358
 20
-2.721724616156684
 10
2.866257561577691
 20
-2.725716484917534
 10
2.864174736870659
 20
-2.729687160915799
 10
2.861906263563368
 20
-2.733634101019965
 10
2.858846876356337
 20
-2.754019843207465
 10
2.855984157986111
 20
-2.800927056206597
 10
2.88425784640842
 20
-2.842052035861545
 10
2.921600341796875
 20
-2.896369086371528
 10
3.037023756239149
 20
-2.937106662326389
 10
3.037023756239149
 20
-2.937106662326389
 10
3.037023756239149
 20
-2.937106662326389
 10
3.098129272460938
 20
-3.249426947699653
 10
3.098129272460938
 20
-3.249426947699653
 10
2.874073452419705
 20
-3.307138231065538
 10
2.829941643608941
 20
-3.670380486382378
 10
2.772230360243055
 20
-3.846909417046441
 10
2.738048977322049
 20
-3.951461791992188
 10
2.682443406846788
 20
-4.001224093967013
 10
2.654763963487413
 20
-4.019494798448351
 10
2.711764017740885
 20
-3.996217515733507
 10
2.753224690755208
 20
-3.990587022569444
 10
2.924995422363281
 20
-3.700933668348524
 10
3.098129272460938
 20
-3.408982170952691
 10
3.379897223578559
 20
-3.514220343695746
 10
3.556426154242621
 20
-3.670380486382378
 10
3.732955084906684
 20
-3.82654062906901
 10
3.868746439615885
 20
-3.860488891601562
 10
3.763508266872829
 20
-3.799382527669271
 97
        0
 97
        0
 92
        1
 93
        1
 72
     4
 94
        3
 73
     0
 74
     1
 95
       44
 96
       40
 40
0.0
 40
0.0
 40
0.0
 40
0.0
 40
1.0
 40
1.0
 40
1.0
 40
2.0
 40
2.0
 40
2.0
 40
3.0
 40
3.0
 40
3.0
 40
4.0
 40
4.0
 40
4.0
 40
5.0
 40
5.0
 40
5.0
 40
6.0
 40
6.0
 40
6.0
 40
7.0
 40
7.0
 40
7.0
 40
8.0
 40
8.0
 40
8.0
 40
9.0
 40
9.0
 40
9.0
 40
10.0
 40
10.0
 40
10.0
 40
11.0
 40
11.0
 40
11.0
 40
12.0
 40
12.0
 40
12.0
 40
13.0
 40
13.0
 40
13.0
 40
13.0
 10
5.405011494954427
 20
-4.153540717230903
 10
5.452685885959201
 20
-4.14225345187717
 10
5.50016615125868
 20
-4.116606818305121
 10
5.535377502441406
 20
-4.092798021104601
 10
5.59096442328559
 20
-4.055213080512153
 10
5.673095703125
 20
-3.980239868164062
 10
5.670618693033854
 20
-3.907982720269097
 10
5.669654846191406
 20
-3.879853990342882
 10
5.626013861762153
 20
-3.868431091308594
 10
5.607269287109375
 20
-3.886990865071614
 10
5.595342848036024
 20
-3.898798624674479
 10
5.585108439127604
 20
-3.911585489908854
 10
5.575502183702256
 20
-3.924744500054253
 10
5.591800265842013
 20
-3.891244676378038
 10
5.604672749837239
 20
-3.856337653266059
 10
5.614001803927951
 20
-3.821907891167534
 10
5.595113966200087
 20
-3.810920715332031
 10
5.576120164659288
 20
-3.800079345703125
 10
5.556921217176649
 20
-3.789521111382378
 10
5.404536777072482
 20
-3.705721537272135
 10
5.246072557237413
 20
-3.632601420084635
 10
5.082712809244791
 20
-3.572868347167969
 10
5.042695787217881
 20
-3.558236016167534
 10
5.002246432834201
 20
-3.544417487250434
 10
4.961480882432725
 20
-3.531324598524305
 10
5.002406650119357
 20
-3.700738694932725
 10
4.967664930555555
 20
-3.893514845106337
 10
4.870094299316406
 20
-4.044336107042101
 10
4.846444871690538
 20
-4.080892774793837
 10
4.883688184950087
 20
-4.110581292046441
 10
4.918690151638454
 20
-4.112085130479601
 10
5.199394226074219
 20
-4.124139573838976
 10
5.415785895453559
 20
-4.270627339680989
 10
5.625067816840278
 20
-4.444017198350695
 10
5.646176656087239
 20
-4.461505466037326
 10
5.688237508138021
 20
-4.443893432617188
 10
5.672615051269531
 20
-4.414667765299479
 10
5.612809922960069
 20
-4.302791171603732
 10
5.517061869303385
 20
-4.216475592719184
 10
5.405011494954427
 20
-4.153540717230903
 97
        0
 97
        0
 92
        1
 93
        1
 72
     4
 94
        3
 73
     0
 74
     1
 95
       23
 96
       19
 40
0.0
 40
0.0
 40
0.0
 40
0.0
 40
1.0
 40
1.0
 40
1.0
 40
2.0
 40
2.0
 40
2.0
 40
3.0
 40
3.0
 40
3.0
 40
4.0
 40
4.0
 40
4.0
 40
5.0
 40
5.0
 40
5.0
 40
6.0
 40
6.0
 40
6.0
 40
6.0
 10
1.543869018554688
 20
-2.201389736599392
 10
1.565855238172743
 20
-2.199329800075955
 10
1.586700439453125
 20
-2.18355475531684
 10
1.573382059733073
 20
-2.160245259602864
 10
1.553310818142361
 20
-2.125114440917969
 10
1.497258504231771
 20
-2.118153042263455
 10
1.460822211371528
 20
-2.116811116536458
 10
1.42223866780599
 20
-2.115389506022135
 10
1.37713877360026
 20
-2.120577494303385
 10
1.349778069390191
 20
-2.149861653645833
 10
1.336687723795573
 20
-2.163872612847222
 10
1.353846232096354
 20
-2.182097540961371
 10
1.367578294542101
 20
-2.184865315755208
 10
1.396456400553385
 20
-2.190685696072049
 10
1.425508287217882
 20
-2.183517456054688
 10
1.454744974772135
 20
-2.186909993489583
 10
1.484374152289496
 20
-2.190348307291667
 10
1.514005025227865
 20
-2.20418718126085
 10
1.543869018554688
 20
-2.201389736599392
 97
        0
 97
        0
 92
        1
 93
        1
 72
     4
 94
        3
 73
     0
 74
     1
 95
       35
 96
       31
 40
0.0
 40
0.0
 40
0.0
 40
0.0
 40
1.0
 40
1.0
 40
1.0
 40
2.0
 40
2.0
 40
2.0
 40
3.0
 40
3.0
 40
3.0
 40
4.0
 40
4.0
 40
4.0
 40
5.0
 40
5.0
 40
5.0
 40
6.0
 40
6.0
 40
6.0
 40
7.0
 40
7.0
 40
7.0
 40
8.0
 40
8.0
 40
8.0
 40
9.0
 40
9.0
 40
9.0
 40
10.0
 40
10.0
 40
10.0
 40
10.0
 10
2.303749084472656
 20
-2.336229112413194
 10
2.235853407118055
 20
-2.244569566514757
 10
2.086482577853733
 20
-2.129146999782986
 10
1.879400465223524
 20
-2.129146999782986
 10
1.672318352593316
 20
-2.129146999782986
 10
1.431288825141059
 20
-2.376966688368055
 10
1.556895785861545
 20
-2.502573649088542
 10
1.556895785861545
 20
-2.502573649088542
 10
1.505973815917969
 20
-2.590838114420573
 10
1.49918450249566
 20
-2.648549397786458
 10
1.492395189073351
 20
-2.706260681152344
 10
1.461842007107205
 20
-2.746998257107205
 10
1.438078138563368
 20
-2.763971964518229
 10
1.414315117730035
 20
-2.780945671929253
 10
1.502579583062066
 20
-2.825078328450521
 10
1.702871534559462
 20
-2.828473409016927
 10
1.702871534559462
 20
-2.828473409016927
 10
1.553501553005642
 20
-2.787735833062066
 10
1.573869493272569
 20
-2.645154317220052
 10
1.59423828125
 20
-2.502573649088542
 10
1.743609110514323
 20
-2.278517829047309
 10
2.069508870442708
 20
-2.315860324435764
 10
2.395408630371094
 20
-2.353202819824219
 10
2.310539245605469
 20
-2.679102579752604
 10
2.25282711452908
 20
-2.736813863118489
 10
2.25282711452908
 20
-2.736813863118489
 10
2.3988037109375
 20
-2.651944478352864
 10
2.429356045193142
 20
-2.482204861111111
 10
2.429356045193142
 20
-2.482204861111111
 10
2.371644761827257
 20
-2.427887810601128
 10
2.303749084472656
 20
-2.336229112413194
 97
        0
 97
        0
 92
        1
 93
        1
 72
     4
 94
        3
 73
     0
 74
     1
 95
       41
 96
       37
 40
0.0
 40
0.0
 40
0.0
 40
0.0
 40
1.0
 40
1.0
 40
1.0
 40
2.0
 40
2.0
 40
2.0
 40
3.0
 40
3.0
 40
3.0
 40
4.0
 40
4.0
 40
4.0
 40
5.0
 40
5.0
 40
5.0
 40
6.0
 40
6.0
 40
6.0
 40
7.0
 40
7.0
 40
7.0
 40
8.0
 40
8.0
 40
8.0
 40
9.0
 40
9.0
 40
9.0
 40
10.0
 40
10.0
 40
10.0
 40
11.0
 40
11.0
 40
11.0
 40
12.0
 40
12.0
 40
12.0
 40
12.0
 10
1.365731133355035
 20
-2.246312459309896
 10
1.358295016818576
 20
-2.249521043565538
 10
1.351158989800347
 20
-2.253851148817274
 10
1.344527350531684
 20
-2.258470323350694
 10
1.334327697753906
 20
-2.265574985080295
 10
1.330251905653212
 20
-2.2724855211046
 10
1.328352186414931
 20
-2.284596761067708
 10
1.325894673665365
 20
-2.300264994303385
 10
1.348263210720486
 20
-2.311139424641927
 10
1.360578748914931
 20
-2.310378180609809
 10
1.369183858235677
 20
-2.309846666124132
 10
1.376412285698785
 20
-2.308421664767795
 10
1.384067959255642
 20
-2.304515414767795
 10
1.386227077907986
 20
-2.303413391113281
 10
1.388302273220486
 20
-2.302174886067708
 10
1.390496148003472
 20
-2.301133897569444
 10
1.391060723198785
 20
-2.300866021050347
 10
1.395199245876736
 20
-2.299283345540364
 10
1.396532694498698
 20
-2.298700968424479
 10
1.397818671332465
 20
-2.298416137695312
 10
1.400384691026476
 20
-2.297780354817708
 10
1.400767856174045
 20
-2.297698974609375
 10
1.403149074978298
 20
-2.297194586859809
 10
1.405543009440104
 20
-2.2968995836046
 10
1.407937791612413
 20
-2.296494377983941
 10
1.41314951578776
 20
-2.295611911349826
 10
1.418222215440538
 20
-2.294160630967882
 10
1.423435635036892
 20
-2.293246799045139
 10
1.436097886827257
 20
-2.291025797526042
 10
1.449063618977865
 20
-2.279955546061198
 10
1.449063618977865
 20
-2.266317579481337
 10
1.449063618977865
 20
-2.252812703450521
 10
1.436129252115885
 20
-2.241466946072049
 10
1.423435635036892
 20
-2.239389207628038
 10
1.402708265516493
 20
-2.235994974772135
 10
1.385017395019531
 20
-2.237991333007812
 10
1.365731133355035
 20
-2.246312459309896
 97
        0
 97
        0
 75
     2
 76
     1
 98
        0
  0
ENDSEC
  0
SECTION
  2
OBJECTS
  0
DICTIONARY
  5
C
330
0
100
AcDbDictionary
281
     1
  3
ACAD_GROUP
350
D
  3
ACAD_LAYOUT
350
1A
  3
ACAD_MATERIAL
350
3B
  3
ACAD_MLEADERSTYLE
350
59
  3
ACAD_MLINESTYLE
350
17
  3
ACAD_PLOTSETTINGS
350
19
  3
ACAD_PLOTSTYLENAME
350
E
  3
ACAD_TABLESTYLE
350
58
  3
ACAD_VISUALSTYLE
350
2A
  0
SUN
  5
3F
330
29
100
AcDbSun
 90
        1
290
     0
 63
     7
421
 16777215
 40
1.0
291
     1
 91
  2455826
 92
 54000000
292
     0
 70
     2
 71
   256
280
     1
  0
DICTIONARY
  5
D
102
{ACAD_REACTORS
330
C
102
}
330
C
100
AcDbDictionary
281
     1
  0
DICTIONARY
  5
1A
102
{ACAD_REACTORS
330
C
102
}
330
C
100
AcDbDictionary
281
     1
  3
Layout1
350
1E
  3
Layout2
350
26
  3
Model
350
22
  0
DICTIONARY
  5
3B
102
{ACAD_REACTORS
330
C
102
}
330
C
100
AcDbDictionary
281
     1
  3
ByBlock
350
3D
  3
ByLayer
350
3C
  3
Global
350
3E
  0
DICTIONARY
  5
59
102
{ACAD_REACTORS
330
C
102
}
330
C
100
AcDbDictionary
281
     1
  0
DICTIONARY
  5
17
102
{ACAD_REACTORS
330
C
102
}
330
C
100
AcDbDictionary
281
     1
  3
Standard
350
18
  0
DICTIONARY
  5
19
102
{ACAD_REACTORS
330
C
102
}
330
C
100
AcDbDictionary
281
     1
  0
ACDBDICTIONARYWDFLT
  5
E
102
{ACAD_REACTORS
330
C
102
}
330
C
100
AcDbDictionary
281
     1
  3
Normal
350
F
100
AcDbDictionaryWithDefault
340
F
  0
DICTIONARY
  5
58
102
{ACAD_REACTORS
330
C
102
}
330
C
100
AcDbDictionary
281
     1
  0
DICTIONARY
  5
2A
102
{ACAD_REACTORS
330
C
102
}
330
C
100
AcDbDictionary
281
     1
  3
2dWireframe
350
2F
  3
3D Hidden
350
31
  3
3dWireframe
350
30
  3
Basic
350
32
  3
Brighten
350
36
  3
ColorChange
350
3A
  3
Conceptual
350
34
  3
Dim
350
35
  3
Facepattern
350
39
  3
Flat
350
2B
  3
FlatWithEdges
350
2C
  3
Gouraud
350
2D
  3
GouraudWithEdges
350
2E
  3
Linepattern
350
38
  3
Realistic
350
33
  3
Thicken
350
37
  0
LAYOUT
  5
1E
102
{ACAD_REACTORS
330
1A
102
}
330
1A
100
AcDbPlotSettings
  1

  2
none_device
  4

  6

 40
0.0
 41
0.0
 42
0.0
 43
0.0
 44
0.0
 45
0.0
 46
0.0
 47
0.0
 48
0.0
 49
0.0
140
0.0
141
0.0
142
1.0
143
1.0
 70
   688
 72
     0
 73
     0
 74
     5
  7

 75
    16
 76
     0
 77
     2
 78
   300
147
1.0
148
0.0
149
0.0
100
AcDbLayout
  1
Layout1
 70
     1
 71
     1
 10
0.0
 20
0.0
 11
12.0
 21
9.0
 12
0.0
 22
0.0
 32
0.0
 14
1.000000000000000E+20
 24
1.000000000000000E+20
 34
1.000000000000000E+20
 15
-1.000000000000000E+20
 25
-1.000000000000000E+20
 35
-1.000000000000000E+20
146
0.0
 13
0.0
 23
0.0
 33
0.0
 16
1.0
 26
0.0
 36
0.0
 17
0.0
 27
1.0
 37
0.0
 76
     0
330
1B
  0
LAYOUT
  5
26
102
{ACAD_REACTORS
330
1A
102
}
330
1A
100
AcDbPlotSettings
  1

  2
none_device
  4

  6

 40
0.0
 41
0.0
 42
0.0
 43
0.0
 44
0.0
 45
0.0
 46
0.0
 47
0.0
 48
0.0
 49
0.0
140
0.0
141
0.0
142
1.0
143
1.0
 70
   688
 72
     0
 73
     0
 74
     5
  7

 75
    16
 76
     0
 77
     2
 78
   300
147
1.0
148
0.0
149
0.0
100
AcDbLayout
  1
Layout2
 70
     1
 71
     2
 10
0.0
 20
0.0
 11
0.0
 21
0.0
 12
0.0
 22
0.0
 32
0.0
 14
0.0
 24
0.0
 34
0.0
 15
0.0
 25
0.0
 35
0.0
146
0.0
 13
0.0
 23
0.0
 33
0.0
 16
1.0
 26
0.0
 36
0.0
 17
0.0
 27
1.0
 37
0.0
 76
     0
330
23
  0
LAYOUT
  5
22
102
{ACAD_REACTORS
330
1A
102
}
330
1A
100
AcDbPlotSettings
  1

  2
none_device
  4

  6

 40
0.0
 41
0.0
 42
0.0
 43
0.0
 44
0.0
 45
0.0
 46
0.0
 47
0.0
 48
0.0
 49
0.0
140
0.0
141
0.0
142
1.0
143
1.0
 70
  1712
 72
     0
 73
     0
 74
     0
  7

 75
     0
 76
     0
 77
     2
 78
   300
147
1.0
148
0.0
149
0.0
100
AcDbLayout
  1
Model
 70
     1
 71
     0
 10
0.0
 20
0.0
 11
12.0
 21
9.0
 12
0.0
 22
0.0
 32
0.0
 14
1.000000000000000E+20
 24
1.000000000000000E+20
 34
1.000000000000000E+20
 15
-1.000000000000000E+20
 25
-1.000000000000000E+20
 35
-1.000000000000000E+20
146
0.0
 13
0.0
 23
0.0
 33
0.0
 16
1.0
 26
0.0
 36
0.0
 17
0.0
 27
1.0
 37
0.0
 76
     0
330
1F
331
29
  0
MATERIAL
  5
3D
102
{ACAD_REACTORS
330
3B
102
}
330
3B
100
AcDbMaterial
  1
ByBlock
 72
     1
 94
      127
  0
MATERIAL
  5
3C
102
{ACAD_REACTORS
330
3B
102
}
330
3B
100
AcDbMaterial
  1
ByLayer
 72
     1
 94
      127
  0
MATERIAL
  5
3E
102
{ACAD_REACTORS
330
3B
102
}
330
3B
100
AcDbMaterial
  1
Global
 72
     1
 94
      127
  0
MLINESTYLE
  5
18
102
{ACAD_REACTORS
330
17
102
}
330
17
100
AcDbMlineStyle
  2
Standard
 70
     0
  3

 62
   256
 51
90.0
 52
90.0
 71
     2
 49
0.5
 62
   256
  6
BYLAYER
 49
-0.5
 62
   256
  6
BYLAYER
  0
ACDBPLACEHOLDER
  5
F
102
{ACAD_REACTORS
330
E
102
}
330
E
  0
VISUALSTYLE
  5
2F
102
{ACAD_REACTORS
330
2A
102
}
330
2A
100
AcDbVisualStyle
  2
2dWireframe
 70
     4
177
     2
291
     0
 71
     0
176
     1
 72
     2
176
     1
 73
     0
176
     1
 90
        0
176
     1
 40
-0.6
176
     1
 41
-30.0
176
     1
 62
     5
 63
     7
421
 16777215
176
     1
 74
     1
176
     1
 91
        4
176
     1
 64
     7
176
     1
 65
   257
176
     1
 75
     1
176
     1
175
     1
176
     1
 42
1.0
176
     1
 92
        0
176
     1
 66
   257
176
     1
 43
1.0
176
     1
 76
     1
176
     1
 77
     6
176
     1
 78
     2
176
     1
 67
     7
176
     1
 79
     5
176
     1
170
     0
176
     1
171
     0
176
     1
290
     0
176
     1
 93
        1
176
     1
 44
0.0
176
     1
173
     0
176
     1
  0
VISUALSTYLE
  5
31
102
{ACAD_REACTORS
330
2A
102
}
330
2A
100
AcDbVisualStyle
  2
3D Hidden
 70
     6
177
     2
291
     0
 71
     1
176
     1
 72
     2
176
     1
 73
     2
176
     1
 90
        0
176
     1
 40
-0.6
176
     1
 41
-30.0
176
     1
 62
     5
 63
     7
421
 16777215
176
     1
 74
     2
176
     1
 91
        2
176
     1
 64
     7
176
     1
 65
   257
176
     1
 75
     2
176
     1
175
     1
176
     1
 42
40.0
176
     1
 92
        0
176
     1
 66
   257
176
     1
 43
1.0
176
     1
 76
     1
176
     1
 77
     6
176
     1
 78
     2
176
     1
 67
     7
176
     1
 79
     3
176
     1
170
     0
176
     1
171
     0
176
     1
290
     0
176
     1
 93
        1
176
     1
 44
0.0
176
     1
173
     0
176
     1
  0
VISUALSTYLE
  5
30
102
{ACAD_REACTORS
330
2A
102
}
330
2A
100
AcDbVisualStyle
  2
3dWireframe
 70
     5
177
     2
291
     0
 71
     0
176
     1
 72
     2
176
     1
 73
     0
176
     1
 90
        0
176
     1
 40
-0.6
176
     1
 41
-30.0
176
     1
 62
     5
 63
     7
421
 16777215
176
     1
 74
     1
176
     1
 91
        4
176
     1
 64
     7
176
     1
 65
   257
176
     1
 75
     1
176
     1
175
     1
176
     1
 42
1.0
176
     1
 92
        0
176
     1
 66
   257
176
     1
 43
1.0
176
     1
 76
     1
176
     1
 77
     6
176
     1
 78
     2
176
     1
 67
     7
176
     1
 79
     5
176
     1
170
     0
176
     1
171
     0
176
     1
290
     0
176
     1
 93
        1
176
     1
 44
0.0
176
     1
173
     0
176
     1
  0
VISUALSTYLE
  5
32
102
{ACAD_REACTORS
330
2A
102
}
330
2A
100
AcDbVisualStyle
  2
Basic
 70
     7
177
     2
291
     1
 71
     1
176
     1
 72
     0
176
     1
 73
     1
176
     1
 90
        0
176
     1
 40
-0.6
176
     1
 41
-30.0
176
     1
 62
     5
 63
     7
421
 16777215
176
     1
 74
     0
176
     1
 91
        4
176
     1
 64
     7
176
     1
 65
   257
176
     1
 75
     1
176
     1
175
     1
176
     1
 42
1.0
176
     1
 92
        8
176
     1
 66
     7
176
     1
 43
1.0
176
     1
 76
     1
176
     1
 77
     6
176
     1
 78
     2
176
     1
 67
     7
176
     1
 79
     5
176
     1
170
     0
176
     1
171
     0
176
     1
290
     0
176
     1
 93
        1
176
     1
 44
0.0
176
     1
173
     0
176
     1
  0
VISUALSTYLE
  5
36
102
{ACAD_REACTORS
330
2A
102
}
330
2A
100
AcDbVisualStyle
  2
Brighten
 70
    12
177
     2
291
     1
 71
     2
176
     1
 72
     2
176
     1
 73
     0
176
     1
 90
        0
176
     1
 40
-0.6
176
     1
 41
-30.0
176
     1
 62
     5
 63
     7
421
 16777215
176
     1
 74
     1
176
     1
 91
        4
176
     1
 64
     7
176
     1
 65
   257
176
     1
 75
     1
176
     1
175
     1
176
     1
 42
1.0
176
     1
 92
        8
176
     1
 66
     7
176
     1
 43
1.0
176
     1
 76
     1
176
     1
 77
     6
176
     1
 78
     2
176
     1
 67
     7
176
     1
 79
     5
176
     1
170
     0
176
     1
171
     0
176
     1
290
     0
176
     1
 93
        1
176
     1
 44
50.0
176
     1
173
     0
176
     1
  0
VISUALSTYLE
  5
3A
102
{ACAD_REACTORS
330
2A
102
}
330
2A
100
AcDbVisualStyle
  2
ColorChange
 70
    16
177
     2
291
     1
 71
     2
176
     1
 72
     2
176
     1
 73
     3
176
     1
 90
        0
176
     1
 40
-0.6
176
     1
 41
-30.0
176
     1
 62
     5
 63
     8
421
  8421504
176
     1
 74
     1
176
     1
 91
        4
176
     1
 64
     7
176
     1
 65
   257
176
     1
 75
     1
176
     1
175
     1
176
     1
 42
1.0
176
     1
 92
        8
176
     1
 66
     8
424
  8421504
176
     1
 43
1.0
176
     1
 76
     1
176
     1
 77
     6
176
     1
 78
     2
176
     1
 67
     7
176
     1
 79
     5
176
     1
170
     0
176
     1
171
     0
176
     1
290
     0
176
     1
 93
        1
176
     1
 44
0.0
176
     1
173
     0
176
     1
  0
VISUALSTYLE
  5
34
102
{ACAD_REACTORS
330
2A
102
}
330
2A
100
AcDbVisualStyle
  2
Conceptual
 70
     9
177
     2
291
     0
 71
     3
176
     1
 72
     2
176
     1
 73
     0
176
     1
 90
        0
176
     1
 40
-0.6
176
     1
 41
-30.0
176
     1
 62
     5
 63
     7
421
 16777215
176
     1
 74
     2
176
     1
 91
        2
176
     1
 64
     7
176
     1
 65
   257
176
     1
 75
     1
176
     1
175
     1
176
     1
 42
40.0
176
     1
 92
        8
176
     1
 66
     7
176
     1
 43
1.0
176
     1
 76
     1
176
     1
 77
     6
176
     1
 78
     2
176
     1
 67
     7
176
     1
 79
     3
176
     1
170
     0
176
     1
171
     0
176
     1
290
     0
176
     1
 93
        1
176
     1
 44
0.0
176
     1
173
     0
176
     1
  0
VISUALSTYLE
  5
35
102
{ACAD_REACTORS
330
2A
102
}
330
2A
100
AcDbVisualStyle
  2
Dim
 70
    11
177
     2
291
     1
 71
     2
176
     1
 72
     2
176
     1
 73
     0
176
     1
 90
        0
176
     1
 40
-0.6
176
     1
 41
-30.0
176
     1
 62
     5
 63
     7
421
 16777215
176
     1
 74
     1
176
     1
 91
        4
176
     1
 64
     7
176
     1
 65
   257
176
     1
 75
     1
176
     1
175
     1
176
     1
 42
1.0
176
     1
 92
        8
176
     1
 66
     7
176
     1
 43
1.0
176
     1
 76
     1
176
     1
 77
     6
176
     1
 78
     2
176
     1
 67
     7
176
     1
 79
     5
176
     1
170
     0
176
     1
171
     0
176
     1
290
     0
176
     1
 93
        1
176
     1
 44
-50.0
176
     1
173
     0
176
     1
  0
VISUALSTYLE
  5
39
102
{ACAD_REACTORS
330
2A
102
}
330
2A
100
AcDbVisualStyle
  2
Facepattern
 70
    15
177
     2
291
     1
 71
     2
176
     1
 72
     2
176
     1
 73
     0
176
     1
 90
        0
176
     1
 40
-0.6
176
     1
 41
-30.0
176
     1
 62
     5
 63
     7
421
 16777215
176
     1
 74
     1
176
     1
 91
        4
176
     1
 64
     7
176
     1
 65
   257
176
     1
 75
     1
176
     1
175
     1
176
     1
 42
1.0
176
     1
 92
        8
176
     1
 66
     7
176
     1
 43
1.0
176
     1
 76
     1
176
     1
 77
     6
176
     1
 78
     2
176
     1
 67
     7
176
     1
 79
     5
176
     1
170
     0
176
     1
171
     0
176
     1
290
     0
176
     1
 93
        1
176
     1
 44
0.0
176
     1
173
     0
176
     1
  0
VISUALSTYLE
  5
2B
102
{ACAD_REACTORS
330
2A
102
}
330
2A
100
AcDbVisualStyle
  2
Flat
 70
     0
177
     2
291
     1
 71
     2
176
     1
 72
     1
176
     1
 73
     1
176
     1
 90
        2
176
     1
 40
-0.6
176
     1
 41
30.0
176
     1
 62
     5
 63
     7
421
 16777215
176
     1
 74
     0
176
     1
 91
        4
176
     1
 64
     7
176
     1
 65
   257
176
     1
 75
     1
176
     1
175
     1
176
     1
 42
1.0
176
     1
 92
        8
176
     1
 66
     7
176
     1
 43
1.0
176
     1
 76
     1
176
     1
 77
     6
176
     1
 78
     2
176
     1
 67
     7
176
     1
 79
     5
176
     1
170
     0
176
     1
171
     0
176
     1
290
     0
176
     1
 93
       13
176
     1
 44
0.0
176
     1
173
     0
176
     1
  0
VISUALSTYLE
  5
2C
102
{ACAD_REACTORS
330
2A
102
}
330
2A
100
AcDbVisualStyle
  2
FlatWithEdges
 70
     1
177
     2
291
     1
 71
     2
176
     1
 72
     1
176
     1
 73
     1
176
     1
 90
        2
176
     1
 40
-0.6
176
     1
 41
30.0
176
     1
 62
     5
 63
     7
421
 16777215
176
     1
 74
     1
176
     1
 91
        4
176
     1
 64
     7
176
     1
 65
   257
176
     1
 75
     1
176
     1
175
     1
176
     1
 42
1.0
176
     1
 92
        0
176
     1
 66
   257
176
     1
 43
1.0
176
     1
 76
     1
176
     1
 77
     6
176
     1
 78
     2
176
     1
 67
     7
176
     1
 79
     5
176
     1
170
     0
176
     1
171
     0
176
     1
290
     0
176
     1
 93
       13
176
     1
 44
0.0
176
     1
173
     0
176
     1
  0
VISUALSTYLE
  5
2D
102
{ACAD_REACTORS
330
2A
102
}
330
2A
100
AcDbVisualStyle
  2
Gouraud
 70
     2
177
     2
291
     1
 71
     2
176
     1
 72
     2
176
     1
 73
     1
176
     1
 90
        2
176
     1
 40
-0.6
176
     1
 41
30.0
176
     1
 62
     5
 63
     7
421
 16777215
176
     1
 74
     0
176
     1
 91
        4
176
     1
 64
     7
176
     1
 65
   257
176
     1
 75
     1
176
     1
175
     1
176
     1
 42
1.0
176
     1
 92
        0
176
     1
 66
     7
176
     1
 43
1.0
176
     1
 76
     1
176
     1
 77
     6
176
     1
 78
     2
176
     1
 67
     7
176
     1
 79
     5
176
     1
170
     0
176
     1
171
     0
176
     1
290
     0
176
     1
 93
       13
176
     1
 44
0.0
176
     1
173
     0
176
     1
  0
VISUALSTYLE
  5
2E
102
{ACAD_REACTORS
330
2A
102
}
330
2A
100
AcDbVisualStyle
  2
GouraudWithEdges
 70
     3
177
     2
291
     1
 71
     2
176
     1
 72
     2
176
     1
 73
     1
176
     1
 90
        2
176
     1
 40
-0.6
176
     1
 41
30.0
176
     1
 62
     5
 63
     7
421
 16777215
176
     1
 74
     1
176
     1
 91
        4
176
     1
 64
     7
176
     1
 65
   257
176
     1
 75
     1
176
     1
175
     1
176
     1
 42
1.0
176
     1
 92
        0
176
     1
 66
   257
176
     1
 43
1.0
176
     1
 76
     1
176
     1
 77
     6
176
     1
 78
     2
176
     1
 67
     7
176
     1
 79
     5
176
     1
170
     0
176
     1
171
     0
176
     1
290
     0
176
     1
 93
       13
176
     1
 44
0.0
176
     1
173
     0
176
     1
  0
VISUALSTYLE
  5
38
102
{ACAD_REACTORS
330
2A
102
}
330
2A
100
AcDbVisualStyle
  2
Linepattern
 70
    14
177
     2
291
     1
 71
     2
176
     1
 72
     2
176
     1
 73
     0
176
     1
 90
        0
176
     1
 40
-0.6
176
     1
 41
-30.0
176
     1
 62
     5
 63
     7
421
 16777215
176
     1
 74
     1
176
     1
 91
        4
176
     1
 64
     7
176
     1
 65
   257
176
     1
 75
     7
176
     1
175
     7
176
     1
 42
1.0
176
     1
 92
        8
176
     1
 66
     7
176
     1
 43
1.0
176
     1
 76
     1
176
     1
 77
     6
176
     1
 78
     2
176
     1
 67
     7
176
     1
 79
     5
176
     1
170
     0
176
     1
171
     0
176
     1
290
     0
176
     1
 93
        1
176
     1
 44
0.0
176
     1
173
     0
176
     1
  0
VISUALSTYLE
  5
33
102
{ACAD_REACTORS
330
2A
102
}
330
2A
100
AcDbVisualStyle
  2
Realistic
 70
     8
177
     2
291
     0
 71
     2
176
     1
 72
     2
176
     1
 73
     0
176
     1
 90
        0
176
     1
 40
-0.6
176
     1
 41
-30.0
176
     1
 62
     5
 63
     7
421
 16777215
176
     1
 74
     1
176
     1
 91
        0
176
     1
 64
     7
176
     1
 65
   257
176
     1
 75
     1
176
     1
175
     1
176
     1
 42
1.0
176
     1
 92
        8
176
     1
 66
     8
424
  7895160
176
     1
 43
1.0
176
     1
 76
     1
176
     1
 77
     6
176
     1
 78
     2
176
     1
 67
     7
176
     1
 79
     5
176
     1
170
     0
176
     1
171
     0
176
     1
290
     0
176
     1
 93
       13
176
     1
 44
0.0
176
     1
173
     0
176
     1
  0
VISUALSTYLE
  5
37
102
{ACAD_REACTORS
330
2A
102
}
330
2A
100
AcDbVisualStyle
  2
Thicken
 70
    13
177
     2
291
     1
 71
     2
176
     1
 72
     2
176
     1
 73
     0
176
     1
 90
        0
176
     1
 40
-0.6
176
     1
 41
-30.0
176
     1
 62
     5
 63
     7
421
 16777215
176
     1
 74
     1
176
     1
 91
        4
176
     1
 64
     7
176
     1
 65
   257
176
     1
 75
     1
176
     1
175
     1
176
     1
 42
1.0
176
     1
 92
       12
176
     1
 66
     7
176
     1
 43
1.0
176
     1
 76
     1
176
     1
 77
     6
176
     1
 78
     2
176
     1
 67
     7
176
     1
 79
     5
176
     1
170
     0
176
     1
171
     0
176
     1
290
     0
176
     1
 93
        1
176
     1
 44
0.0
176
     1
173
     0
176
     1
  0
ENDSEC
  0
EOF
